<svg xmlns="http://www.w3.org/2000/svg" xmlns:v="https://svgstorm.com"
viewBox = "0 0 313 161"
width="313"
height="161">
<g fill="None" fill-opacity="0.0" stroke="#04060C" stroke-opacity="1.00" stroke-width="0.3"><path d="
M 0.00 1.00 
C 7.26 -0.62 8.42 12.91 0.00 10.00
L 0.00 20.00
C 5.51 19.97 5.52 30.03 0.00 30.00
L 0.00 47.00
C 10.72 39.58 19.28 39.79 30.00 44.00
C 31.44 44.57 33.50 43.57 35.00 44.00
C 33.05 44.43 31.09 49.19 30.00 48.00
C 25.84 49.15 22.61 46.76 18.00 49.00
C 19.07 50.87 22.38 50.57 23.00 53.00
C 19.79 52.30 16.31 49.43 13.00 52.00
C 13.95 54.86 18.10 54.12 19.00 57.00
C 14.27 56.08 11.09 51.41 6.00 54.00
C 8.42 57.02 12.26 59.25 16.00 60.00
C 22.81 59.08 24.09 51.97 30.00 50.00
C 25.71 54.11 23.05 61.06 16.00 61.00
C 13.68 63.39 12.62 59.90 10.00 60.00
C 8.46 63.98 3.08 63.64 0.00 62.00
L 0.00 75.00
C 0.50 75.00 1.50 75.00 2.00 75.00
C 0.71 72.97 1.01 62.46 6.00 64.00
C 2.72 74.59 10.50 68.38 17.00 69.00
C 17.27 63.70 17.34 69.16 20.00 69.00
C 21.85 66.96 19.13 65.33 18.00 64.00
C 23.53 63.10 21.53 68.98 21.00 72.00
C 14.47 71.21 8.36 72.99 3.00 75.00
C 8.94 75.98 11.59 76.63 12.00 79.00
C 12.31 80.78 14.19 82.07 11.25 84.25 C 8.30 86.42 7.46 86.82 7.00 90.00
C 7.75 89.95 8.90 89.95 9.00 91.00
C 12.01 92.71 15.62 91.77 19.00 92.00
C 19.00 93.67 19.00 95.33 19.00 97.00
C 18.72 98.38 16.96 97.78 16.00 98.00
C 15.85 103.45 15.42 108.88 14.00 114.00
C 14.11 117.01 18.03 120.87 14.00 122.00
C 11.92 122.58 10.75 121.23 9.00 121.00
C 6.75 120.71 4.27 121.00 2.00 121.00
C 1.50 121.00 0.50 121.00 0.00 121.00
L 0.00 125.00
C 1.92 126.18 3.07 130.20 0.00 131.00
L 0.00 137.00
C 4.87 134.80 11.02 132.65 13.00 127.00
C 9.53 126.87 6.16 126.87 3.00 128.00
C 7.27 123.95 15.39 127.55 20.00 123.00
C 17.93 138.53 25.55 151.21 37.00 161.00
L 54.00 161.00
C 60.04 156.41 72.10 154.09 75.00 146.00
C 74.24 145.04 74.17 143.67 73.00 143.00
C 70.41 146.73 66.23 148.90 63.00 152.00
C 59.02 154.67 53.28 156.44 50.00 160.00
C 48.57 158.51 46.99 155.83 50.00 155.00
C 50.55 154.65 51.54 154.37 52.00 154.00
C 57.22 149.82 63.37 144.15 70.00 142.00
C 71.93 141.37 73.76 140.49 76.00 141.00
C 76.00 142.33 76.00 143.67 76.00 145.00
C 76.94 146.65 77.88 148.93 80.00 150.00
C 76.68 154.77 71.24 157.70 67.00 161.00
L 87.00 161.00
C 86.63 156.55 79.36 156.47 79.00 152.00
C 82.74 154.87 87.36 156.94 90.00 161.00
L 313.00 161.00
L 313.00 0.00
L 75.00 0.00
C 73.41 3.06 66.55 3.12 65.00 0.00
L 46.00 0.00
C 45.21 6.58 32.85 8.68 35.00 0.00
L 20.00 0.00
C 18.65 4.10 12.32 4.03 11.00 0.00
L 0.00 0.00
L 0.00 1.00
M 64.00 13.00 
C 59.63 17.21 49.96 9.98 55.26 5.26 C 60.56 0.53 65.40 8.70 64.00 13.00
M 30.00 7.00 
C 35.73 8.68 31.72 17.45 26.00 15.00 C 20.28 12.55 25.30 5.62 30.00 7.00
M 15.00 8.00 
C 20.33 11.67 11.64 21.64 6.78 17.22 C 1.92 12.80 10.64 5.00 15.00 8.00
M 47.00 10.00 
C 51.89 13.26 44.07 23.17 38.93 19.07 C 33.78 14.97 42.76 7.17 47.00 10.00
M 78.00 25.00 
C 74.61 29.64 65.76 25.71 71.75 19.75 C 77.74 13.79 83.19 20.53 78.00 25.00
M 29.00 19.00 
C 34.60 19.57 35.31 29.22 27.92 29.92 C 20.54 30.63 23.02 18.39 29.00 19.00
M 58.00 26.00 
C 63.62 28.28 60.05 38.82 52.93 35.07 C 45.81 31.32 50.76 23.07 58.00 26.00
M 8.00 35.00 
C 10.80 33.32 12.33 31.39 11.00 28.00
C 7.73 28.51 9.07 33.12 6.00 33.00
C 7.50 20.36 20.38 33.99 8.00 35.00
M 41.00 52.00 
C 41.14 53.26 38.95 54.21 38.00 54.00
C 38.41 54.79 38.26 56.24 39.00 57.00
C 28.79 54.98 44.38 41.74 44.00 53.00
C 42.89 52.02 42.72 50.68 41.00 52.00
M 31.00 99.00 
C 30.58 96.44 30.59 94.51 31.00 92.00
C 31.14 89.09 31.15 85.76 32.00 83.00
C 29.01 86.79 23.89 91.17 19.00 91.00
C 19.58 80.82 19.85 67.76 29.00 62.00
C 32.85 66.36 34.12 71.88 35.00 77.00
C 47.52 50.23 84.68 43.46 105.75 64.25 C 126.82 85.04 121.26 121.81 94.30 135.30 C 67.35 148.80 32.53 129.83 31.00 99.00
M 25.00 104.00 
C 29.16 105.14 30.27 113.56 24.32 112.66 C 18.37 111.76 18.83 102.31 25.00 104.00
M 39.00 146.00 
C 40.48 138.72 39.52 127.90 32.00 124.00
C 32.17 125.95 29.66 131.59 35.00 132.00
C 31.10 133.45 32.66 137.48 38.00 139.00
C 30.81 138.28 37.11 145.31 37.00 150.00
C 33.99 149.39 30.80 147.45 29.00 145.00
C 31.40 144.95 33.04 146.97 35.00 148.00
C 34.36 144.41 33.37 140.82 30.00 144.00
C 34.10 139.68 31.77 134.13 27.00 139.00
C 30.35 136.41 33.21 126.56 27.00 131.00
C 29.18 127.89 29.86 125.80 29.00 122.00
C 21.12 126.61 23.37 139.00 29.00 144.00
C 19.70 141.28 23.00 124.57 27.00 117.00
C 36.51 122.26 45.20 135.99 39.00 146.00
M 119.00 125.00 
C 116.67 125.37 112.77 125.57 113.00 130.00
C 115.96 130.45 116.47 127.05 119.00 127.00
C 118.21 130.10 115.14 131.46 112.00 131.00
C 110.36 126.88 115.80 120.24 119.00 125.00
M 100.00 147.00 
C 99.31 147.64 98.32 149.13 98.00 150.00
C 100.63 150.72 104.59 150.33 106.00 153.00
C 103.22 153.96 100.83 151.91 98.00 151.00
C 95.74 152.47 95.51 154.06 94.00 156.00
C 93.06 157.21 93.18 159.44 91.00 159.00
C 88.50 147.18 90.99 137.51 104.67 133.67 C 118.36 129.84 121.45 147.57 107.00 152.00
C 111.27 148.23 116.18 143.35 116.00 137.00
C 111.74 137.45 106.44 141.36 113.00 143.00
C 109.54 143.60 106.61 140.87 104.00 144.00
C 105.53 146.07 109.09 144.07 111.00 146.00
C 108.01 148.46 102.92 143.19 100.00 147.00
M 46.00 155.00 
C 40.37 156.23 37.17 146.77 43.25 144.25 C 49.33 141.73 50.26 152.12 46.00 155.00
M 119.00 153.00 
C 118.69 153.24 118.00 153.00 118.00 153.00
C 114.41 155.67 118.51 154.90 120.00 156.00
C 114.47 159.07 112.48 152.02 116.75 148.75 C 121.03 145.48 126.16 150.86 122.00 155.00
C 120.74 153.02 122.74 149.88 119.00 153.00
M 102.00 155.00 
C 100.74 155.88 97.25 158.22 96.00 156.00
C 97.29 155.19 100.87 153.33 102.00 155.00 Z"/>
</g>
<g fill="None" fill-opacity="0.0" stroke="#462B1B" stroke-opacity="1.00" stroke-width="0.3"><path d="
M 20.00 0.00 
L 11.00 0.00
C 12.32 4.03 18.65 4.10 20.00 0.00 Z"/>
</g>
<g fill="None" fill-opacity="0.0" stroke="#422318" stroke-opacity="1.00" stroke-width="0.3"><path d="
M 46.00 0.00 
L 35.00 0.00
C 32.85 8.68 45.21 6.58 46.00 0.00 Z"/>
</g>
<g fill="None" fill-opacity="0.0" stroke="#36231E" stroke-opacity="1.00" stroke-width="0.3"><path d="
M 75.00 0.00 
L 65.00 0.00
C 66.55 3.12 73.41 3.06 75.00 0.00 Z"/>
</g>
<g fill="None" fill-opacity="0.0" stroke="#3E1F16" stroke-opacity="1.00" stroke-width="0.3"><path d="
M 0.00 10.00 
C 8.42 12.91 7.26 -0.62 0.00 1.00
L 0.00 10.00 Z"/>
</g>
<g fill="None" fill-opacity="0.0" stroke="#43251C" stroke-opacity="1.00" stroke-width="0.3"><path d="
M 64.00 13.00 
C 65.40 8.70 60.56 0.53 55.26 5.26 C 49.96 9.98 59.63 17.21 64.00 13.00 Z"/>
</g>
<g fill="None" fill-opacity="0.0" stroke="#4A291B" stroke-opacity="1.00" stroke-width="0.3"><path d="
M 30.00 7.00 
C 25.30 5.62 20.28 12.55 26.00 15.00 C 31.72 17.45 35.73 8.68 30.00 7.00 Z"/>
</g>
<g fill="None" fill-opacity="0.0" stroke="#48281B" stroke-opacity="1.00" stroke-width="0.3"><path d="
M 15.00 8.00 
C 10.64 5.00 1.92 12.80 6.78 17.22 C 11.64 21.64 20.33 11.67 15.00 8.00 Z"/>
</g>
<g fill="None" fill-opacity="0.0" stroke="#482917" stroke-opacity="1.00" stroke-width="0.3"><path d="
M 47.00 10.00 
C 42.76 7.17 33.78 14.97 38.93 19.07 C 44.07 23.17 51.89 13.26 47.00 10.00 Z"/>
</g>
<g fill="None" fill-opacity="0.0" stroke="#482819" stroke-opacity="1.00" stroke-width="0.3"><path d="
M 78.00 25.00 
C 83.19 20.53 77.74 13.79 71.75 19.75 C 65.76 25.71 74.61 29.64 78.00 25.00 Z"/>
</g>
<g fill="None" fill-opacity="0.0" stroke="#42251A" stroke-opacity="1.00" stroke-width="0.3"><path d="
M 29.00 19.00 
C 23.02 18.39 20.54 30.63 27.92 29.92 C 35.31 29.22 34.60 19.57 29.00 19.00 Z"/>
</g>
<g fill="None" fill-opacity="0.0" stroke="#3F2311" stroke-opacity="1.00" stroke-width="0.3"><path d="
M 0.00 30.00 
C 5.52 30.03 5.51 19.97 0.00 20.00
L 0.00 30.00 Z"/>
</g>
<g fill="None" fill-opacity="0.0" stroke="#3A221A" stroke-opacity="1.00" stroke-width="0.3"><path d="
M 58.00 26.00 
C 50.76 23.07 45.81 31.32 52.93 35.07 C 60.05 38.82 63.62 28.28 58.00 26.00 Z"/>
</g>
<g fill="None" fill-opacity="0.0" stroke="#373738" stroke-opacity="1.00" stroke-width="0.3"><path d="
M 8.00 35.00 
C 20.38 33.99 7.50 20.36 6.00 33.00
C 9.07 33.12 7.73 28.51 11.00 28.00
C 12.33 31.39 10.80 33.32 8.00 35.00 Z"/>
</g>
<g fill="None" fill-opacity="0.0" stroke="#525356" stroke-opacity="1.00" stroke-width="0.3"><path d="
M 0.00 47.00 
L 0.00 49.00
C 4.84 48.08 16.78 36.67 21.67 42.33 C 26.56 47.98 10.30 49.24 9.00 52.00
C 8.74 50.03 11.62 47.24 10.00 46.00
C 9.38 50.66 0.42 57.80 5.00 49.00
C 2.06 49.94 2.06 53.50 0.00 55.00
L 0.00 56.00
C 3.96 53.95 5.93 58.39 10.00 58.00
C 8.25 62.28 3.65 62.71 0.00 61.00
L 0.00 62.00
C 3.08 63.64 8.46 63.98 10.00 60.00
C 12.62 59.90 13.68 63.39 16.00 61.00
C 15.97 61.00 16.00 60.00 16.00 60.00
C 12.26 59.25 8.42 57.02 6.00 54.00
C 11.09 51.41 14.27 56.08 19.00 57.00
C 18.10 54.12 13.95 54.86 13.00 52.00
C 16.31 49.43 19.79 52.30 23.00 53.00
C 22.38 50.57 19.07 50.87 18.00 49.00
C 22.61 46.76 25.84 49.15 30.00 48.00
C 31.27 46.69 30.80 45.37 30.00 44.00
C 19.28 39.79 10.72 39.58 0.00 47.00
M 28.00 44.00 
C 24.52 48.70 23.05 41.85 28.00 44.00
M 30.00 46.00 
C 28.09 48.49 26.02 45.19 30.00 46.00 Z"/>
</g>
<g fill="None" fill-opacity="0.0" stroke="#05080E" stroke-opacity="1.00" stroke-width="0.3"><path d="
M 0.00 49.00 
L 0.00 55.00
C 2.06 53.50 2.06 49.94 5.00 49.00
C 0.42 57.80 9.38 50.66 10.00 46.00
C 11.62 47.24 8.74 50.03 9.00 52.00
C 10.30 49.24 26.56 47.98 21.67 42.33 C 16.78 36.67 4.84 48.08 0.00 49.00
M 16.00 43.00 
C 16.47 48.37 12.09 45.81 16.00 43.00 Z"/>
</g>
<g fill="None" fill-opacity="0.0" stroke="#46474C" stroke-opacity="1.00" stroke-width="0.3"><path d="
M 16.00 43.00 
C 12.09 45.81 16.47 48.37 16.00 43.00 Z"/>
</g>
<g fill="None" fill-opacity="0.0" stroke="#03040A" stroke-opacity="1.00" stroke-width="0.3"><path d="
M 28.00 44.00 
C 23.05 41.85 24.52 48.70 28.00 44.00 Z"/>
</g>
<g fill="None" fill-opacity="0.0" stroke="#818286" stroke-opacity="1.00" stroke-width="0.3"><path d="
M 30.00 48.00 
C 31.09 49.19 33.05 44.43 35.00 44.00
C 33.50 43.57 31.44 44.57 30.00 44.00
C 30.80 45.37 31.27 46.69 30.00 48.00 Z"/>
</g>
<g fill="None" fill-opacity="0.0" stroke="#020306" stroke-opacity="1.00" stroke-width="0.3"><path d="
M 30.00 46.00 
C 26.02 45.19 28.09 48.49 30.00 46.00 Z"/>
</g>
<g fill="None" fill-opacity="0.0" stroke="#373940" stroke-opacity="1.00" stroke-width="0.3"><path d="
M 38.00 54.00 
C 37.65 53.92 36.96 53.31 37.00 53.00
C 37.23 51.19 39.07 50.30 40.00 51.00
C 40.29 51.22 40.75 51.91 41.00 52.00
C 42.72 50.68 42.89 52.02 44.00 53.00
C 44.38 41.74 28.79 54.98 39.00 57.00
C 38.26 56.24 38.41 54.79 38.00 54.00 Z"/>
</g>
<g fill="None" fill-opacity="0.0" stroke="#646568" stroke-opacity="1.00" stroke-width="0.3"><path d="
M 16.00 60.00 
C 16.00 60.00 15.97 61.00 16.00 61.00
C 23.05 61.06 25.71 54.11 30.00 50.00
C 24.09 51.97 22.81 59.08 16.00 60.00 Z"/>
</g>
<g fill="None" fill-opacity="0.0" stroke="#060810" stroke-opacity="1.00" stroke-width="0.3"><path d="
M 37.00 53.00 
C 36.48 53.96 40.86 50.81 40.00 51.00
C 39.07 50.30 37.23 51.19 37.00 53.00 Z"/>
</g>
<g fill="None" fill-opacity="0.0" stroke="#77787D" stroke-opacity="1.00" stroke-width="0.3"><path d="
M 37.00 53.00 
C 36.96 53.31 37.65 53.92 38.00 54.00
C 38.95 54.21 41.14 53.26 41.00 52.00
C 40.75 51.91 40.29 51.22 40.00 51.00
C 40.86 50.81 36.48 53.96 37.00 53.00 Z"/>
</g>
<g fill="None" fill-opacity="0.0" stroke="#DDDEDE" stroke-opacity="1.00" stroke-width="0.3"><path d="
M 35.00 77.00 
C 34.11 78.90 32.52 81.32 32.00 83.00
C 31.15 85.76 31.14 89.09 31.00 92.00
C 30.89 94.29 30.89 96.71 31.00 99.00
C 32.53 129.83 67.35 148.80 94.30 135.30 C 121.26 121.81 126.82 85.04 105.75 64.25 C 84.68 43.46 47.52 50.23 35.00 77.00
M 116.00 89.00 
C 105.99 90.80 108.27 101.12 104.23 108.23 C 100.19 115.34 96.35 120.13 88.92 123.92 C 81.48 127.71 69.74 126.34 61.78 124.22 C 53.82 122.10 52.39 116.42 47.25 109.75 C 42.11 103.08 42.43 92.53 44.78 84.78 C 47.13 77.03 51.90 71.89 58.25 67.25 C 64.59 62.60 75.87 60.13 83.01 62.99 C 90.14 65.85 98.33 68.11 101.75 75.25 C 105.18 82.39 104.59 91.49 116.00 89.00 Z"/>
</g>
<g fill="None" fill-opacity="0.0" stroke="#04050A" stroke-opacity="1.00" stroke-width="0.3"><path d="
M 0.00 56.00 
L 0.00 57.00
C 0.94 57.57 1.82 58.15 3.00 58.00
C 2.74 59.39 0.95 58.78 0.00 59.00
L 0.00 61.00
C 3.65 62.71 8.25 62.28 10.00 58.00
C 5.93 58.39 3.96 53.95 0.00 56.00 Z"/>
</g>
<g fill="None" fill-opacity="0.0" stroke="#656567" stroke-opacity="1.00" stroke-width="0.3"><path d="
M 0.00 59.00 
C 0.95 58.78 2.74 59.39 3.00 58.00
C 1.82 58.15 0.94 57.57 0.00 57.00
L 0.00 59.00 Z"/>
</g>
<g fill="None" fill-opacity="0.0" stroke="#505052" stroke-opacity="1.00" stroke-width="0.3"><path d="
M 32.00 83.00 
C 32.52 81.32 34.11 78.90 35.00 77.00
C 34.12 71.88 32.85 66.36 29.00 62.00
C 19.85 67.76 19.58 80.82 19.00 91.00
C 23.89 91.17 29.01 86.79 32.00 83.00
M 23.00 89.00 
C 21.94 86.79 22.78 85.07 24.00 83.00
C 26.22 84.40 29.12 82.87 29.00 80.00
C 27.15 80.94 24.19 81.28 25.00 78.00
C 27.26 76.85 31.18 76.49 31.00 73.00
C 28.80 71.93 27.35 77.15 26.00 75.00
C 28.91 71.03 29.05 69.70 29.00 66.00
C 37.74 73.05 30.80 84.20 23.00 89.00
M 25.00 70.00 
C 22.77 72.64 26.64 76.53 23.00 78.00
C 22.70 76.41 22.06 71.04 25.00 70.00
M 23.00 79.00 
C 24.51 80.84 22.32 83.69 21.00 85.00
C 19.57 83.28 20.40 78.94 23.00 79.00 Z"/>
</g>
<g fill="None" fill-opacity="0.0" stroke="#B4B6B6" stroke-opacity="1.00" stroke-width="0.3"><path d="
M 116.00 89.00 
C 104.59 91.49 105.18 82.39 101.75 75.25 C 98.33 68.11 90.14 65.85 83.01 62.99 C 75.87 60.13 64.59 62.60 58.25 67.25 C 51.90 71.89 47.13 77.03 44.78 84.78 C 42.43 92.53 42.11 103.08 47.25 109.75 C 52.39 116.42 53.82 122.10 61.78 124.22 C 69.74 126.34 81.48 127.71 88.92 123.92 C 96.35 120.13 100.19 115.34 104.23 108.23 C 108.27 101.12 105.99 90.80 116.00 89.00
M 80.00 66.00 
C 100.36 69.65 112.23 94.83 99.08 112.08 C 85.93 129.34 60.00 127.20 50.08 107.92 C 40.15 88.65 57.07 61.89 80.00 66.00 Z"/>
</g>
<g fill="None" fill-opacity="0.0" stroke="#49494C" stroke-opacity="1.00" stroke-width="0.3"><path d="
M 2.00 75.00 
C 2.50 75.00 3.00 75.00 3.00 75.00
C 8.36 72.99 14.47 71.21 21.00 72.00
C 21.53 68.98 23.53 63.10 18.00 64.00
C 19.13 65.33 21.85 66.96 20.00 69.00
C 17.34 69.16 17.27 63.70 17.00 69.00
C 10.50 68.38 2.72 74.59 6.00 64.00
C 1.01 62.46 0.71 72.97 2.00 75.00
M 4.00 65.00 
C 5.13 70.21 1.19 67.83 4.00 65.00
M 19.00 70.00 
C 12.89 72.91 10.68 68.79 19.00 70.00 Z"/>
</g>
<g fill="None" fill-opacity="0.0" stroke="#020208" stroke-opacity="1.00" stroke-width="0.3"><path d="
M 4.00 65.00 
C 1.19 67.83 5.13 70.21 4.00 65.00 Z"/>
</g>
<g fill="None" fill-opacity="0.0" stroke="#030307" stroke-opacity="1.00" stroke-width="0.3"><path d="
M 23.00 89.00 
C 30.80 84.20 37.74 73.05 29.00 66.00
C 29.05 69.70 28.91 71.03 26.00 75.00
C 27.35 77.15 28.80 71.93 31.00 73.00
C 31.18 76.49 27.26 76.85 25.00 78.00
C 24.19 81.28 27.15 80.94 29.00 80.00
C 29.12 82.87 26.22 84.40 24.00 83.00
C 22.78 85.07 21.94 86.79 23.00 89.00 Z"/>
</g>
<g fill="None" fill-opacity="0.0" stroke="#E8EAE9" stroke-opacity="1.00" stroke-width="0.3"><path d="
M 80.00 66.00 
C 57.07 61.89 40.15 88.65 50.08 107.92 C 60.00 127.20 85.93 129.34 99.08 112.08 C 112.23 94.83 100.36 69.65 80.00 66.00
M 97.00 105.00 
C 96.58 106.30 96.39 107.65 96.00 109.00
C 91.28 125.40 62.75 124.47 54.68 109.32 C 46.61 94.17 50.60 72.65 71.02 70.02 C 91.44 67.40 104.70 83.37 101.00 104.00
C 99.62 105.36 98.47 103.67 97.00 105.00 Z"/>
</g>
<g fill="None" fill-opacity="0.0" stroke="#000106" stroke-opacity="1.00" stroke-width="0.3"><path d="
M 19.00 70.00 
C 10.68 68.79 12.89 72.91 19.00 70.00 Z"/>
</g>
<g fill="None" fill-opacity="0.0" stroke="#020307" stroke-opacity="1.00" stroke-width="0.3"><path d="
M 25.00 70.00 
C 22.06 71.04 22.70 76.41 23.00 78.00
C 26.64 76.53 22.77 72.64 25.00 70.00 Z"/>
</g>
<g fill="None" fill-opacity="0.0" stroke="#D6BFB4" stroke-opacity="1.00" stroke-width="0.3"><path d="
M 96.00 109.00 
C 87.11 124.41 64.93 119.89 56.00 108.00
C 47.41 96.56 53.28 78.00 67.00 73.00
C 88.55 65.14 103.15 86.20 97.00 105.00
C 98.47 103.67 99.62 105.36 101.00 104.00
C 104.70 83.37 91.44 67.40 71.02 70.02 C 50.60 72.65 46.61 94.17 54.68 109.32 C 62.75 124.47 91.28 125.40 96.00 109.00 Z"/>
</g>
<g fill="None" fill-opacity="0.0" stroke="#87492F" stroke-opacity="1.00" stroke-width="0.3"><path d="
M 67.00 73.00 
C 73.56 71.40 84.03 73.37 90.00 78.00
C 88.94 83.37 92.04 86.66 93.00 92.00 C 93.95 97.34 88.29 101.96 90.00 107.00
C 81.74 112.15 69.60 118.80 59.00 109.00
C 58.78 108.74 58.10 108.35 58.00 108.00
C 56.99 107.06 55.99 107.99 56.00 108.00
C 64.93 119.89 87.11 124.41 96.00 109.00
C 96.39 107.65 96.58 106.30 97.00 105.00
C 103.15 86.20 88.55 65.14 67.00 73.00 Z"/>
</g>
<g fill="None" fill-opacity="0.0" stroke="#A75E39" stroke-opacity="1.00" stroke-width="0.3"><path d="
M 56.00 108.00 
C 55.99 107.99 56.99 107.06 58.00 108.00
C 57.03 104.69 56.10 103.08 56.00 99.00
C 52.92 104.52 52.29 89.64 55.78 85.78 C 59.27 81.92 64.30 74.47 71.00 75.00
C 72.08 76.75 73.12 79.22 76.00 79.00
C 72.67 83.94 84.32 90.59 79.22 98.22 C 74.12 105.85 66.36 104.36 59.00 104.00
C 58.02 105.76 60.59 108.14 59.00 109.00
C 69.60 118.80 81.74 112.15 90.00 107.00
C 88.29 101.96 93.95 97.34 93.00 92.00 C 92.04 86.66 88.94 83.37 90.00 78.00
C 84.03 73.37 73.56 71.40 67.00 73.00
C 53.28 78.00 47.41 96.56 56.00 108.00 Z"/>
</g>
<g fill="None" fill-opacity="0.0" stroke="#E4E4E4" stroke-opacity="1.00" stroke-width="0.3"><path d="
M 0.00 79.00 
C 2.67 79.00 5.33 79.00 8.00 79.00
C 9.26 79.00 10.76 79.22 12.00 79.00
C 11.59 76.63 8.94 75.98 3.00 75.00
C 3.00 75.00 2.50 75.00 2.00 75.00
C 1.50 75.00 0.50 75.00 0.00 75.00
L 0.00 79.00 Z"/>
</g>
<g fill="None" fill-opacity="0.0" stroke="#BD7449" stroke-opacity="1.00" stroke-width="0.3"><path d="
M 58.00 108.00 
C 58.10 108.35 58.78 108.74 59.00 109.00
C 60.59 108.14 58.02 105.76 59.00 104.00
C 66.36 104.36 74.12 105.85 79.22 98.22 C 84.32 90.59 72.67 83.94 76.00 79.00
C 73.12 79.22 72.08 76.75 71.00 75.00
C 64.30 74.47 59.27 81.92 55.78 85.78 C 52.29 89.64 52.92 104.52 56.00 99.00
C 56.10 103.08 57.03 104.69 58.00 108.00 Z"/>
</g>
<g fill="None" fill-opacity="0.0" stroke="#06070A" stroke-opacity="1.00" stroke-width="0.3"><path d="
M 0.00 86.00 
C 3.40 88.31 5.61 84.99 9.00 85.00
C 7.08 82.73 11.51 80.45 8.00 79.00
C 5.33 79.00 2.67 79.00 0.00 79.00
L 0.00 86.00 Z"/>
</g>
<g fill="None" fill-opacity="0.0" stroke="#4E4F51" stroke-opacity="1.00" stroke-width="0.3"><path d="
M 0.00 86.00 
L 0.00 87.00
C 2.43 88.20 4.35 87.70 6.00 90.00
C 6.50 89.98 7.00 90.00 7.00 90.00
C 7.46 86.82 8.30 86.42 11.25 84.25 C 14.19 82.07 12.31 80.78 12.00 79.00
C 10.76 79.22 9.26 79.00 8.00 79.00
C 11.51 80.45 7.08 82.73 9.00 85.00
C 5.61 84.99 3.40 88.31 0.00 86.00 Z"/>
</g>
<g fill="None" fill-opacity="0.0" stroke="#080A0F" stroke-opacity="1.00" stroke-width="0.3"><path d="
M 23.00 79.00 
C 20.40 78.94 19.57 83.28 21.00 85.00
C 22.32 83.69 24.51 80.84 23.00 79.00 Z"/>
</g>
<g fill="None" fill-opacity="0.0" stroke="#13151B" stroke-opacity="1.00" stroke-width="0.3"><path d="
M 0.00 89.00 
C 2.00 89.55 3.76 90.09 6.00 90.00
C 4.35 87.70 2.43 88.20 0.00 87.00
L 0.00 89.00 Z"/>
</g>
<g fill="None" fill-opacity="0.0" stroke="#D4D4D6" stroke-opacity="1.00" stroke-width="0.3"><path d="
M 0.00 91.00 
C 2.54 92.39 6.08 92.26 9.00 92.00
C 8.86 91.54 9.00 91.00 9.00 91.00
C 8.90 89.95 7.75 89.95 7.00 90.00
C 7.00 90.00 6.50 89.98 6.00 90.00
C 3.76 90.09 2.00 89.55 0.00 89.00
L 0.00 91.00 Z"/>
</g>
<g fill="None" fill-opacity="0.0" stroke="#020308" stroke-opacity="1.00" stroke-width="0.3"><path d="
M 0.00 95.00 
C 4.26 94.73 7.71 96.16 12.00 96.00
C 11.20 94.78 11.53 93.48 13.00 93.00
C 11.70 92.83 9.52 93.68 9.00 92.00
C 6.08 92.26 2.54 92.39 0.00 91.00
L 0.00 95.00 Z"/>
</g>
<g fill="None" fill-opacity="0.0" stroke="#69696B" stroke-opacity="1.00" stroke-width="0.3"><path d="
M 9.00 92.00 
C 9.52 93.68 11.70 92.83 13.00 93.00
C 14.64 93.21 16.35 92.84 18.00 93.00
C 18.28 94.28 17.24 96.50 19.00 97.00
C 19.00 95.33 19.00 93.67 19.00 92.00
C 15.62 91.77 12.01 92.71 9.00 91.00
C 9.00 91.00 8.86 91.54 9.00 92.00 Z"/>
</g>
<g fill="None" fill-opacity="0.0" stroke="#626265" stroke-opacity="1.00" stroke-width="0.3"><path d="
M 31.00 99.00 
C 30.89 96.71 30.89 94.29 31.00 92.00
C 30.59 94.51 30.58 96.44 31.00 99.00 Z"/>
</g>
<g fill="None" fill-opacity="0.0" stroke="#404145" stroke-opacity="1.00" stroke-width="0.3"><path d="
M 12.00 96.00 
C 12.23 96.35 12.00 97.00 12.00 97.00
C 13.01 97.36 13.76 98.32 15.00 98.00
C 10.65 101.76 16.00 108.82 13.00 114.00
C 13.05 113.86 14.00 114.00 14.00 114.00
C 15.42 108.88 15.85 103.45 16.00 98.00
C 16.96 97.78 18.72 98.38 19.00 97.00
C 17.24 96.50 18.28 94.28 18.00 93.00
C 16.35 92.84 14.64 93.21 13.00 93.00
C 11.53 93.48 11.20 94.78 12.00 96.00 Z"/>
</g>
<g fill="None" fill-opacity="0.0" stroke="#696A6D" stroke-opacity="1.00" stroke-width="0.3"><path d="
M 0.00 96.00 
C 4.14 95.64 7.73 97.78 12.00 97.00
C 12.00 97.00 12.23 96.35 12.00 96.00
C 7.71 96.16 4.26 94.73 0.00 95.00
L 0.00 96.00 Z"/>
</g>
<g fill="None" fill-opacity="0.0" stroke="#03050B" stroke-opacity="1.00" stroke-width="0.3"><path d="
M 0.00 116.00 
C 1.65 116.13 3.35 115.82 5.00 116.00
C 5.87 115.79 5.15 112.63 8.00 114.00
C 2.51 111.02 8.45 110.56 12.00 111.00
C 11.62 113.31 10.90 114.84 12.00 117.00
C 13.25 116.23 12.77 115.34 13.00 114.00
C 16.00 108.82 10.65 101.76 15.00 98.00
C 13.76 98.32 13.01 97.36 12.00 97.00
C 7.73 97.78 4.14 95.64 0.00 96.00
L 0.00 116.00 Z"/>
</g>
<g fill="None" fill-opacity="0.0" stroke="#3C3D42" stroke-opacity="1.00" stroke-width="0.3"><path d="
M 25.00 104.00 
C 18.83 102.31 18.37 111.76 24.32 112.66 C 30.27 113.56 29.16 105.14 25.00 104.00
M 24.00 105.00 
C 25.53 107.16 28.40 109.28 26.00 112.00
C 24.34 110.26 20.77 110.02 21.00 107.00
C 24.37 109.44 22.53 106.25 24.00 105.00 Z"/>
</g>
<g fill="None" fill-opacity="0.0" stroke="#01020A" stroke-opacity="1.00" stroke-width="0.3"><path d="
M 24.00 105.00 
C 22.53 106.25 24.37 109.44 21.00 107.00
C 20.77 110.02 24.34 110.26 26.00 112.00
C 28.40 109.28 25.53 107.16 24.00 105.00 Z"/>
</g>
<g fill="None" fill-opacity="0.0" stroke="#37383B" stroke-opacity="1.00" stroke-width="0.3"><path d="
M 5.00 116.00 
C 6.36 116.14 10.03 118.20 12.00 117.00
C 10.90 114.84 11.62 113.31 12.00 111.00
C 8.45 110.56 2.51 111.02 8.00 114.00
C 5.15 112.63 5.87 115.79 5.00 116.00 Z"/>
</g>
<g fill="None" fill-opacity="0.0" stroke="#7A7A7C" stroke-opacity="1.00" stroke-width="0.3"><path d="
M 12.00 117.00 
C 10.03 118.20 6.36 116.14 5.00 116.00
C 3.35 115.82 1.65 116.13 0.00 116.00
L 0.00 117.00
C 2.95 118.12 7.08 116.89 10.00 118.00
C 10.70 117.89 13.42 122.02 14.00 122.00
C 18.03 120.87 14.11 117.01 14.00 114.00
C 14.00 114.00 13.05 113.86 13.00 114.00
C 12.77 115.34 13.25 116.23 12.00 117.00 Z"/>
</g>
<g fill="None" fill-opacity="0.0" stroke="#04050B" stroke-opacity="1.00" stroke-width="0.3"><path d="
M 0.00 119.00 
C 0.74 118.82 1.91 119.05 2.00 120.00
C 4.07 119.72 6.93 119.72 9.00 120.00
C 9.02 119.91 10.14 117.98 10.00 118.00
C 7.08 116.89 2.95 118.12 0.00 117.00
L 0.00 119.00 Z"/>
</g>
<g fill="None" fill-opacity="0.0" stroke="#44454A" stroke-opacity="1.00" stroke-width="0.3"><path d="
M 39.00 146.00 
C 45.20 135.99 36.51 122.26 27.00 117.00
C 23.00 124.57 19.70 141.28 29.00 144.00
C 23.37 139.00 21.12 126.61 29.00 122.00
C 29.86 125.80 29.18 127.89 27.00 131.00
C 33.21 126.56 30.35 136.41 27.00 139.00
C 31.77 134.13 34.10 139.68 30.00 144.00
C 33.37 140.82 34.36 144.41 35.00 148.00
C 33.04 146.97 31.40 144.95 29.00 145.00
C 30.80 147.45 33.99 149.39 37.00 150.00
C 37.11 145.31 30.81 138.28 38.00 139.00
C 32.66 137.48 31.10 133.45 35.00 132.00
C 29.66 131.59 32.17 125.95 32.00 124.00
C 39.52 127.90 40.48 138.72 39.00 146.00 Z"/>
</g>
<g fill="None" fill-opacity="0.0" stroke="#505052" stroke-opacity="1.00" stroke-width="0.3"><path d="
M 9.00 120.00 
C 8.91 120.48 9.00 121.00 9.00 121.00
C 10.75 121.23 11.92 122.58 14.00 122.00
C 13.42 122.02 10.70 117.89 10.00 118.00
C 10.14 117.98 9.02 119.91 9.00 120.00 Z"/>
</g>
<g fill="None" fill-opacity="0.0" stroke="#505052" stroke-opacity="1.00" stroke-width="0.3"><path d="
M 0.00 121.00 
C 0.50 121.00 1.50 121.00 2.00 121.00
C 2.23 120.66 2.00 120.00 2.00 120.00
C 1.91 119.05 0.74 118.82 0.00 119.00
L 0.00 121.00 Z"/>
</g>
<g fill="None" fill-opacity="0.0" stroke="#7A7A7C" stroke-opacity="1.00" stroke-width="0.3"><path d="
M 2.00 121.00 
C 4.27 121.00 6.75 120.71 9.00 121.00
C 9.00 121.00 8.91 120.48 9.00 120.00
C 6.93 119.72 4.07 119.72 2.00 120.00
C 2.00 120.00 2.23 120.66 2.00 121.00 Z"/>
</g>
<g fill="None" fill-opacity="0.0" stroke="#616264" stroke-opacity="1.00" stroke-width="0.3"><path d="
M 0.00 137.00 
L 0.00 139.00
C 2.12 136.53 4.86 136.82 7.00 139.00
C 3.71 132.45 14.34 135.58 13.00 129.00
C 17.86 134.57 21.69 141.61 23.00 149.00
C 16.46 147.51 17.69 137.15 12.00 135.00
C 13.73 140.80 19.97 146.38 19.00 152.00
C 18.77 152.36 19.00 153.00 19.00 153.00
C 19.53 153.93 17.15 156.13 16.00 155.00
C 14.92 154.89 15.56 153.44 16.00 153.00
C 15.65 148.37 9.05 143.74 7.00 140.00
C 7.29 146.18 15.13 149.76 14.00 155.00
C 12.85 156.86 12.17 156.89 10.00 157.00
C 9.16 157.04 7.81 157.21 7.00 157.00
C 7.41 158.20 6.69 159.77 7.00 161.00
L 10.00 161.00
C 10.37 159.30 12.42 158.60 12.00 161.00
L 14.00 161.00
C 11.37 158.39 15.70 156.62 18.00 157.00
C 17.63 158.54 19.43 159.40 19.00 161.00
L 23.00 161.00
C 20.84 159.99 18.42 158.18 19.00 155.00
C 23.83 152.99 26.00 157.01 28.00 161.00
L 31.00 161.00
C 28.20 158.43 24.76 155.06 24.00 151.00
C 26.34 150.32 25.86 153.87 28.00 154.00
C 29.57 154.95 34.69 157.62 36.00 161.00
L 37.00 161.00
C 25.55 151.21 17.93 138.53 20.00 123.00
C 15.39 127.55 7.27 123.95 3.00 128.00
C 6.16 126.87 9.53 126.87 13.00 127.00
C 11.02 132.65 4.87 134.80 0.00 137.00
M 19.00 125.00 
C 19.00 128.00 19.00 131.00 19.00 134.00
C 16.14 133.05 16.88 128.90 14.00 128.00
C 15.16 126.51 17.34 125.98 19.00 125.00
M 23.00 151.00 
C 22.96 150.96 22.06 153.50 21.25 152.59 C 20.43 151.67 22.37 150.37 23.00 151.00 Z"/>
</g>
<g fill="None" fill-opacity="0.0" stroke="#36373D" stroke-opacity="1.00" stroke-width="0.3"><path d="
M 119.00 125.00 
C 115.80 120.24 110.36 126.88 112.00 131.00
C 115.14 131.46 118.21 130.10 119.00 127.00
C 116.47 127.05 115.96 130.45 113.00 130.00
C 112.77 125.57 116.67 125.37 119.00 125.00 Z"/>
</g>
<g fill="None" fill-opacity="0.0" stroke="#CACACC" stroke-opacity="1.00" stroke-width="0.3"><path d="
M 0.00 131.00 
C 3.07 130.20 1.92 126.18 0.00 125.00
L 0.00 131.00 Z"/>
</g>
<g fill="None" fill-opacity="0.0" stroke="#06080E" stroke-opacity="1.00" stroke-width="0.3"><path d="
M 19.00 125.00 
C 17.34 125.98 15.16 126.51 14.00 128.00
C 16.88 128.90 16.14 133.05 19.00 134.00
C 19.00 131.00 19.00 128.00 19.00 125.00 Z"/>
</g>
<g fill="None" fill-opacity="0.0" stroke="#030409" stroke-opacity="1.00" stroke-width="0.3"><path d="
M 0.00 139.00 
L 0.00 141.00
C 3.76 145.72 8.59 150.48 11.00 156.00
C 12.11 155.02 12.28 153.68 14.00 155.00
C 15.13 149.76 7.29 146.18 7.00 140.00
C 9.05 143.74 15.65 148.37 16.00 153.00
C 16.48 152.52 18.31 151.59 19.00 152.00
C 19.97 146.38 13.73 140.80 12.00 135.00
C 17.69 137.15 16.46 147.51 23.00 149.00
C 21.69 141.61 17.86 134.57 13.00 129.00
C 14.34 135.58 3.71 132.45 7.00 139.00
C 4.86 136.82 2.12 136.53 0.00 139.00 Z"/>
</g>
<g fill="None" fill-opacity="0.0" stroke="#404146" stroke-opacity="1.00" stroke-width="0.3"><path d="
M 94.00 156.00 
C 94.00 155.91 93.00 154.71 93.00 154.00
C 92.99 151.77 94.14 150.27 94.00 148.00
C 90.33 148.10 92.67 153.58 92.00 156.00
C 87.61 144.20 101.16 131.22 113.00 135.00
C 110.73 135.62 106.03 144.24 105.00 137.00
C 104.74 140.97 102.94 143.68 100.00 146.00
C 97.59 144.34 101.08 141.46 100.00 139.00
C 96.50 140.47 98.57 145.08 98.00 148.00
C 98.57 147.52 99.44 147.39 100.00 147.00
C 102.92 143.19 108.01 148.46 111.00 146.00
C 109.09 144.07 105.53 146.07 104.00 144.00
C 106.61 140.87 109.54 143.60 113.00 143.00
C 106.44 141.36 111.74 137.45 116.00 137.00
C 116.18 143.35 111.27 148.23 107.00 152.00
C 121.45 147.57 118.36 129.84 104.67 133.67 C 90.99 137.51 88.50 147.18 91.00 159.00
C 93.18 159.44 93.06 157.21 94.00 156.00 Z"/>
</g>
<g fill="None" fill-opacity="0.0" stroke="#090C12" stroke-opacity="1.00" stroke-width="0.3"><path d="
M 93.00 154.00 
C 93.22 152.73 97.03 148.83 98.00 148.00
C 98.57 145.08 96.50 140.47 100.00 139.00
C 101.08 141.46 97.59 144.34 100.00 146.00
C 102.94 143.68 104.74 140.97 105.00 137.00
C 106.03 144.24 110.73 135.62 113.00 135.00
C 101.16 131.22 87.61 144.20 92.00 156.00
C 92.67 153.58 90.33 148.10 94.00 148.00
C 94.14 150.27 92.99 151.77 93.00 154.00 Z"/>
</g>
<g fill="None" fill-opacity="0.0" stroke="#7A7A7C" stroke-opacity="1.00" stroke-width="0.3"><path d="
M 0.00 144.00 
C 5.04 144.64 6.62 156.04 10.00 157.00
C 12.17 156.89 12.85 156.86 14.00 155.00
C 12.28 153.68 12.11 155.02 11.00 156.00
C 8.59 150.48 3.76 145.72 0.00 141.00
L 0.00 144.00 Z"/>
</g>
<g fill="None" fill-opacity="0.0" stroke="#808081" stroke-opacity="1.00" stroke-width="0.3"><path d="
M 70.00 142.00 
C 72.74 142.49 70.92 144.06 70.00 145.00
C 68.17 146.88 64.29 149.47 62.00 151.00
C 62.15 150.99 62.71 152.06 63.00 152.00
C 66.23 148.90 70.41 146.73 73.00 143.00
C 74.17 143.67 74.24 145.04 75.00 146.00
C 75.13 145.65 75.91 145.25 76.00 145.00
C 76.00 143.67 76.00 142.33 76.00 141.00
C 73.76 140.49 71.93 141.37 70.00 142.00 Z"/>
</g>
<g fill="None" fill-opacity="0.0" stroke="#5E5F63" stroke-opacity="1.00" stroke-width="0.3"><path d="
M 52.00 154.00 
C 52.45 153.54 48.82 157.28 50.00 155.00
C 46.99 155.83 48.57 158.51 50.00 160.00
C 53.28 156.44 59.02 154.67 63.00 152.00
C 62.71 152.06 62.15 150.99 62.00 151.00
C 59.15 152.90 55.83 154.07 53.00 156.00
C 56.37 151.38 64.61 144.73 70.00 145.00
C 70.92 144.06 72.74 142.49 70.00 142.00
C 63.37 144.15 57.22 149.82 52.00 154.00 Z"/>
</g>
<g fill="None" fill-opacity="0.0" stroke="#030409" stroke-opacity="1.00" stroke-width="0.3"><path d="
M 0.00 151.00 
C 2.88 151.95 4.11 156.26 7.00 157.00
C 7.81 157.21 9.16 157.04 10.00 157.00
C 6.62 156.04 5.04 144.64 0.00 144.00
L 0.00 151.00 Z"/>
</g>
<g fill="None" fill-opacity="0.0" stroke="#3C3E43" stroke-opacity="1.00" stroke-width="0.3"><path d="
M 46.00 155.00 
C 50.26 152.12 49.33 141.73 43.25 144.25 C 37.17 146.77 40.37 156.23 46.00 155.00
M 43.00 153.00 
C 44.53 150.80 46.87 149.10 46.00 146.00
C 49.76 147.29 46.30 153.94 43.00 153.00
M 44.00 149.00 
C 45.59 149.38 43.43 151.79 43.00 150.00
C 41.24 147.95 43.24 145.72 44.00 149.00 Z"/>
</g>
<g fill="None" fill-opacity="0.0" stroke="#04050C" stroke-opacity="1.00" stroke-width="0.3"><path d="
M 62.00 151.00 
C 64.29 149.47 68.17 146.88 70.00 145.00
C 64.61 144.73 56.37 151.38 53.00 156.00
C 55.83 154.07 59.15 152.90 62.00 151.00 Z"/>
</g>
<g fill="None" fill-opacity="0.0" stroke="#E5E6E8" stroke-opacity="1.00" stroke-width="0.3"><path d="
M 75.00 146.00 
C 72.10 154.09 60.04 156.41 54.00 161.00
L 67.00 161.00
C 71.24 157.70 76.68 154.77 80.00 150.00
C 77.88 148.93 76.94 146.65 76.00 145.00
C 75.91 145.25 75.13 145.65 75.00 146.00 Z"/>
</g>
<g fill="None" fill-opacity="0.0" stroke="#04060C" stroke-opacity="1.00" stroke-width="0.3"><path d="
M 43.00 153.00 
C 46.30 153.94 49.76 147.29 46.00 146.00
C 46.87 149.10 44.53 150.80 43.00 153.00 Z"/>
</g>
<g fill="None" fill-opacity="0.0" stroke="#010209" stroke-opacity="1.00" stroke-width="0.3"><path d="
M 43.00 150.00 
C 42.93 149.72 44.02 149.08 44.00 149.00
C 43.24 145.72 41.24 147.95 43.00 150.00 Z"/>
</g>
<g fill="None" fill-opacity="0.0" stroke="#63646A" stroke-opacity="1.00" stroke-width="0.3"><path d="
M 98.00 148.00 
C 97.03 148.83 93.22 152.73 93.00 154.00
C 93.00 154.71 94.00 155.91 94.00 156.00
C 95.51 154.06 95.74 152.47 98.00 151.00
C 98.23 150.85 98.00 150.00 98.00 150.00
C 98.32 149.13 99.31 147.64 100.00 147.00
C 99.44 147.39 98.57 147.52 98.00 148.00 Z"/>
</g>
<g fill="None" fill-opacity="0.0" stroke="#34363C" stroke-opacity="1.00" stroke-width="0.3"><path d="
M 118.00 153.00 
C 117.65 152.97 117.17 152.33 117.00 152.00
C 116.32 150.64 117.74 148.27 119.00 151.00
C 120.24 150.88 119.26 152.84 119.00 153.00
C 122.74 149.88 120.74 153.02 122.00 155.00
C 126.16 150.86 121.03 145.48 116.75 148.75 C 112.48 152.02 114.47 159.07 120.00 156.00
C 118.51 154.90 114.41 155.67 118.00 153.00 Z"/>
</g>
<g fill="None" fill-opacity="0.0" stroke="#7D7E83" stroke-opacity="1.00" stroke-width="0.3"><path d="
M 43.00 150.00 
C 43.43 151.79 45.59 149.38 44.00 149.00
C 44.02 149.08 42.93 149.72 43.00 150.00 Z"/>
</g>
<g fill="None" fill-opacity="0.0" stroke="#02040A" stroke-opacity="1.00" stroke-width="0.3"><path d="
M 117.00 152.00 
C 116.65 153.01 119.68 150.93 119.00 151.00
C 117.74 148.27 116.32 150.64 117.00 152.00 Z"/>
</g>
<g fill="None" fill-opacity="0.0" stroke="#36373D" stroke-opacity="1.00" stroke-width="0.3"><path d="
M 98.00 151.00 
C 100.83 151.91 103.22 153.96 106.00 153.00
C 104.59 150.33 100.63 150.72 98.00 150.00
C 98.00 150.00 98.23 150.85 98.00 151.00 Z"/>
</g>
<g fill="None" fill-opacity="0.0" stroke="#78797C" stroke-opacity="1.00" stroke-width="0.3"><path d="
M 0.00 153.00 
C 2.46 155.10 6.43 157.28 6.00 161.00
L 7.00 161.00
C 6.69 159.77 7.41 158.20 7.00 157.00
C 4.11 156.26 2.88 151.95 0.00 151.00
L 0.00 153.00 Z"/>
</g>
<g fill="None" fill-opacity="0.0" stroke="#0E0F11" stroke-opacity="1.00" stroke-width="0.3"><path d="
M 23.00 151.00 
C 22.37 150.37 20.43 151.67 21.25 152.59 C 22.06 153.50 22.96 150.96 23.00 151.00 Z"/>
</g>
<g fill="None" fill-opacity="0.0" stroke="#080A0F" stroke-opacity="1.00" stroke-width="0.3"><path d="
M 31.00 161.00 
L 35.00 161.00
C 33.27 158.19 30.45 156.01 28.00 154.00
C 25.86 153.87 26.34 150.32 24.00 151.00
C 24.76 155.06 28.20 158.43 31.00 161.00 Z"/>
</g>
<g fill="None" fill-opacity="0.0" stroke="#909196" stroke-opacity="1.00" stroke-width="0.3"><path d="
M 117.00 152.00 
C 117.17 152.33 117.65 152.97 118.00 153.00
C 118.00 153.00 118.69 153.24 119.00 153.00
C 119.26 152.84 120.24 150.88 119.00 151.00
C 119.68 150.93 116.65 153.01 117.00 152.00 Z"/>
</g>
<g fill="None" fill-opacity="0.0" stroke="#8C8D8F" stroke-opacity="1.00" stroke-width="0.3"><path d="
M 16.00 153.00 
C 15.56 153.44 14.92 154.89 16.00 155.00
C 15.85 154.98 18.80 153.17 19.00 153.00
C 19.00 153.00 18.77 152.36 19.00 152.00
C 18.31 151.59 16.48 152.52 16.00 153.00 Z"/>
</g>
<g fill="None" fill-opacity="0.0" stroke="#5C5B61" stroke-opacity="1.00" stroke-width="0.3"><path d="
M 87.00 161.00 
L 90.00 161.00
C 87.36 156.94 82.74 154.87 79.00 152.00
C 79.36 156.47 86.63 156.55 87.00 161.00 Z"/>
</g>
<g fill="None" fill-opacity="0.0" stroke="#05070C" stroke-opacity="1.00" stroke-width="0.3"><path d="
M 0.00 161.00 
L 6.00 161.00
C 6.43 157.28 2.46 155.10 0.00 153.00
L 0.00 161.00 Z"/>
</g>
<g fill="None" fill-opacity="0.0" stroke="#06080E" stroke-opacity="1.00" stroke-width="0.3"><path d="
M 16.00 155.00 
C 17.15 156.13 19.53 153.93 19.00 153.00
C 18.80 153.17 15.85 154.98 16.00 155.00 Z"/>
</g>
<g fill="None" fill-opacity="0.0" stroke="#949598" stroke-opacity="1.00" stroke-width="0.3"><path d="
M 28.00 154.00 
C 30.45 156.01 33.27 158.19 35.00 161.00
L 36.00 161.00
C 34.69 157.62 29.57 154.95 28.00 154.00 Z"/>
</g>
<g fill="None" fill-opacity="0.0" stroke="#101216" stroke-opacity="1.00" stroke-width="0.3"><path d="
M 23.00 161.00 
L 28.00 161.00
C 26.00 157.01 23.83 152.99 19.00 155.00
C 18.42 158.18 20.84 159.99 23.00 161.00 Z"/>
</g>
<g fill="None" fill-opacity="0.0" stroke="#9D9EA3" stroke-opacity="1.00" stroke-width="0.3"><path d="
M 50.00 155.00 
C 48.82 157.28 52.45 153.54 52.00 154.00
C 51.54 154.37 50.55 154.65 50.00 155.00 Z"/>
</g>
<g fill="None" fill-opacity="0.0" stroke="#37383D" stroke-opacity="1.00" stroke-width="0.3"><path d="
M 102.00 155.00 
C 100.87 153.33 97.29 155.19 96.00 156.00
C 97.25 158.22 100.74 155.88 102.00 155.00 Z"/>
</g>
<g fill="None" fill-opacity="0.0" stroke="#16171B" stroke-opacity="1.00" stroke-width="0.3"><path d="
M 14.00 161.00 
L 19.00 161.00
C 19.43 159.40 17.63 158.54 18.00 157.00
C 15.70 156.62 11.37 158.39 14.00 161.00 Z"/>
</g>
<g fill="None" fill-opacity="0.0" stroke="#1A1B1F" stroke-opacity="1.00" stroke-width="0.3"><path d="
M 10.00 161.00 
L 12.00 161.00
C 12.42 158.60 10.37 159.30 10.00 161.00 Z"/>
</g>
<g fill="#04060C" fill-opacity="1.00" stroke="None">
<path d="
M 0.00 1.00 
C 7.26 -0.62 8.42 12.91 0.00 10.00
L 0.00 20.00
C 5.51 19.97 5.52 30.03 0.00 30.00
L 0.00 47.00
C 10.72 39.58 19.28 39.79 30.00 44.00
C 31.44 44.57 33.50 43.57 35.00 44.00
C 33.05 44.43 31.09 49.19 30.00 48.00
C 25.84 49.15 22.61 46.76 18.00 49.00
C 19.07 50.87 22.38 50.57 23.00 53.00
C 19.79 52.30 16.31 49.43 13.00 52.00
C 13.95 54.86 18.10 54.12 19.00 57.00
C 14.27 56.08 11.09 51.41 6.00 54.00
C 8.42 57.02 12.26 59.25 16.00 60.00
C 22.81 59.08 24.09 51.97 30.00 50.00
C 25.71 54.11 23.05 61.06 16.00 61.00
C 13.68 63.39 12.62 59.90 10.00 60.00
C 8.46 63.98 3.08 63.64 0.00 62.00
L 0.00 75.00
C 0.50 75.00 1.50 75.00 2.00 75.00
C 0.71 72.97 1.01 62.46 6.00 64.00
C 2.72 74.59 10.50 68.38 17.00 69.00
C 17.27 63.70 17.34 69.16 20.00 69.00
C 21.85 66.96 19.13 65.33 18.00 64.00
C 23.53 63.10 21.53 68.98 21.00 72.00
C 14.47 71.21 8.36 72.99 3.00 75.00
C 8.94 75.98 11.59 76.63 12.00 79.00
C 12.31 80.78 14.19 82.07 11.25 84.25 C 8.30 86.42 7.46 86.82 7.00 90.00
C 7.75 89.95 8.90 89.95 9.00 91.00
C 12.01 92.71 15.62 91.77 19.00 92.00
C 19.00 93.67 19.00 95.33 19.00 97.00
C 18.72 98.38 16.96 97.78 16.00 98.00
C 15.85 103.45 15.42 108.88 14.00 114.00
C 14.11 117.01 18.03 120.87 14.00 122.00
C 11.92 122.58 10.75 121.23 9.00 121.00
C 6.75 120.71 4.27 121.00 2.00 121.00
C 1.50 121.00 0.50 121.00 0.00 121.00
L 0.00 125.00
C 1.92 126.18 3.07 130.20 0.00 131.00
L 0.00 137.00
C 4.87 134.80 11.02 132.65 13.00 127.00
C 9.53 126.87 6.16 126.87 3.00 128.00
C 7.27 123.95 15.39 127.55 20.00 123.00
C 17.93 138.53 25.55 151.21 37.00 161.00
L 54.00 161.00
C 60.04 156.41 72.10 154.09 75.00 146.00
C 74.24 145.04 74.17 143.67 73.00 143.00
C 70.41 146.73 66.23 148.90 63.00 152.00
C 59.02 154.67 53.28 156.44 50.00 160.00
C 48.57 158.51 46.99 155.83 50.00 155.00
C 50.55 154.65 51.54 154.37 52.00 154.00
C 57.22 149.82 63.37 144.15 70.00 142.00
C 71.93 141.37 73.76 140.49 76.00 141.00
C 76.00 142.33 76.00 143.67 76.00 145.00
C 76.94 146.65 77.88 148.93 80.00 150.00
C 76.68 154.77 71.24 157.70 67.00 161.00
L 87.00 161.00
C 86.63 156.55 79.36 156.47 79.00 152.00
C 82.74 154.87 87.36 156.94 90.00 161.00
L 313.00 161.00
L 313.00 0.00
L 75.00 0.00
C 73.41 3.06 66.55 3.12 65.00 0.00
L 46.00 0.00
C 45.21 6.58 32.85 8.68 35.00 0.00
L 20.00 0.00
C 18.65 4.10 12.32 4.03 11.00 0.00
L 0.00 0.00
L 0.00 1.00
M 64.00 13.00 
C 59.63 17.21 49.96 9.98 55.26 5.26 C 60.56 0.53 65.40 8.70 64.00 13.00
M 30.00 7.00 
C 35.73 8.68 31.72 17.45 26.00 15.00 C 20.28 12.55 25.30 5.62 30.00 7.00
M 15.00 8.00 
C 20.33 11.67 11.64 21.64 6.78 17.22 C 1.92 12.80 10.64 5.00 15.00 8.00
M 47.00 10.00 
C 51.89 13.26 44.07 23.17 38.93 19.07 C 33.78 14.97 42.76 7.17 47.00 10.00
M 78.00 25.00 
C 74.61 29.64 65.76 25.71 71.75 19.75 C 77.74 13.79 83.19 20.53 78.00 25.00
M 29.00 19.00 
C 34.60 19.57 35.31 29.22 27.92 29.92 C 20.54 30.63 23.02 18.39 29.00 19.00
M 58.00 26.00 
C 63.62 28.28 60.05 38.82 52.93 35.07 C 45.81 31.32 50.76 23.07 58.00 26.00
M 8.00 35.00 
C 10.80 33.32 12.33 31.39 11.00 28.00
C 7.73 28.51 9.07 33.12 6.00 33.00
C 7.50 20.36 20.38 33.99 8.00 35.00
M 41.00 52.00 
C 41.14 53.26 38.95 54.21 38.00 54.00
C 38.41 54.79 38.26 56.24 39.00 57.00
C 28.79 54.98 44.38 41.74 44.00 53.00
C 42.89 52.02 42.72 50.68 41.00 52.00
M 31.00 99.00 
C 30.58 96.44 30.59 94.51 31.00 92.00
C 31.14 89.09 31.15 85.76 32.00 83.00
C 29.01 86.79 23.89 91.17 19.00 91.00
C 19.58 80.82 19.85 67.76 29.00 62.00
C 32.85 66.36 34.12 71.88 35.00 77.00
C 47.52 50.23 84.68 43.46 105.75 64.25 C 126.82 85.04 121.26 121.81 94.30 135.30 C 67.35 148.80 32.53 129.83 31.00 99.00
M 25.00 104.00 
C 29.16 105.14 30.27 113.56 24.32 112.66 C 18.37 111.76 18.83 102.31 25.00 104.00
M 39.00 146.00 
C 40.48 138.72 39.52 127.90 32.00 124.00
C 32.17 125.95 29.66 131.59 35.00 132.00
C 31.10 133.45 32.66 137.48 38.00 139.00
C 30.81 138.28 37.11 145.31 37.00 150.00
C 33.99 149.39 30.80 147.45 29.00 145.00
C 31.40 144.95 33.04 146.97 35.00 148.00
C 34.36 144.41 33.37 140.82 30.00 144.00
C 34.10 139.68 31.77 134.13 27.00 139.00
C 30.35 136.41 33.21 126.56 27.00 131.00
C 29.18 127.89 29.86 125.80 29.00 122.00
C 21.12 126.61 23.37 139.00 29.00 144.00
C 19.70 141.28 23.00 124.57 27.00 117.00
C 36.51 122.26 45.20 135.99 39.00 146.00
M 119.00 125.00 
C 116.67 125.37 112.77 125.57 113.00 130.00
C 115.96 130.45 116.47 127.05 119.00 127.00
C 118.21 130.10 115.14 131.46 112.00 131.00
C 110.36 126.88 115.80 120.24 119.00 125.00
M 100.00 147.00 
C 99.31 147.64 98.32 149.13 98.00 150.00
C 100.63 150.72 104.59 150.33 106.00 153.00
C 103.22 153.96 100.83 151.91 98.00 151.00
C 95.74 152.47 95.51 154.06 94.00 156.00
C 93.06 157.21 93.18 159.44 91.00 159.00
C 88.50 147.18 90.99 137.51 104.67 133.67 C 118.36 129.84 121.45 147.57 107.00 152.00
C 111.27 148.23 116.18 143.35 116.00 137.00
C 111.74 137.45 106.44 141.36 113.00 143.00
C 109.54 143.60 106.61 140.87 104.00 144.00
C 105.53 146.07 109.09 144.07 111.00 146.00
C 108.01 148.46 102.92 143.19 100.00 147.00
M 46.00 155.00 
C 40.37 156.23 37.17 146.77 43.25 144.25 C 49.33 141.73 50.26 152.12 46.00 155.00
M 119.00 153.00 
C 118.69 153.24 118.00 153.00 118.00 153.00
C 114.41 155.67 118.51 154.90 120.00 156.00
C 114.47 159.07 112.48 152.02 116.75 148.75 C 121.03 145.48 126.16 150.86 122.00 155.00
C 120.74 153.02 122.74 149.88 119.00 153.00
M 102.00 155.00 
C 100.74 155.88 97.25 158.22 96.00 156.00
C 97.29 155.19 100.87 153.33 102.00 155.00 Z"/>
</g>
<g fill="#462B1B" fill-opacity="1.00" stroke="None">
<path d="
M 20.00 0.00 
L 11.00 0.00
C 12.32 4.03 18.65 4.10 20.00 0.00 Z"/>
</g>
<g fill="#422318" fill-opacity="1.00" stroke="None">
<path d="
M 46.00 0.00 
L 35.00 0.00
C 32.85 8.68 45.21 6.58 46.00 0.00 Z"/>
</g>
<g fill="#36231E" fill-opacity="1.00" stroke="None">
<path d="
M 75.00 0.00 
L 65.00 0.00
C 66.55 3.12 73.41 3.06 75.00 0.00 Z"/>
</g>
<g fill="#3E1F16" fill-opacity="1.00" stroke="None">
<path d="
M 0.00 10.00 
C 8.42 12.91 7.26 -0.62 0.00 1.00
L 0.00 10.00 Z"/>
</g>
<g fill="#43251C" fill-opacity="1.00" stroke="None">
<path d="
M 64.00 13.00 
C 65.40 8.70 60.56 0.53 55.26 5.26 C 49.96 9.98 59.63 17.21 64.00 13.00 Z"/>
</g>
<g fill="#4A291B" fill-opacity="1.00" stroke="None">
<path d="
M 30.00 7.00 
C 25.30 5.62 20.28 12.55 26.00 15.00 C 31.72 17.45 35.73 8.68 30.00 7.00 Z"/>
</g>
<g fill="#48281B" fill-opacity="1.00" stroke="None">
<path d="
M 15.00 8.00 
C 10.64 5.00 1.92 12.80 6.78 17.22 C 11.64 21.64 20.33 11.67 15.00 8.00 Z"/>
</g>
<g fill="#482917" fill-opacity="1.00" stroke="None">
<path d="
M 47.00 10.00 
C 42.76 7.17 33.78 14.97 38.93 19.07 C 44.07 23.17 51.89 13.26 47.00 10.00 Z"/>
</g>
<g fill="#482819" fill-opacity="1.00" stroke="None">
<path d="
M 78.00 25.00 
C 83.19 20.53 77.74 13.79 71.75 19.75 C 65.76 25.71 74.61 29.64 78.00 25.00 Z"/>
</g>
<g fill="#42251A" fill-opacity="1.00" stroke="None">
<path d="
M 29.00 19.00 
C 23.02 18.39 20.54 30.63 27.92 29.92 C 35.31 29.22 34.60 19.57 29.00 19.00 Z"/>
</g>
<g fill="#3F2311" fill-opacity="1.00" stroke="None">
<path d="
M 0.00 30.00 
C 5.52 30.03 5.51 19.97 0.00 20.00
L 0.00 30.00 Z"/>
</g>
<g fill="#3A221A" fill-opacity="1.00" stroke="None">
<path d="
M 58.00 26.00 
C 50.76 23.07 45.81 31.32 52.93 35.07 C 60.05 38.82 63.62 28.28 58.00 26.00 Z"/>
</g>
<g fill="#373738" fill-opacity="1.00" stroke="None">
<path d="
M 8.00 35.00 
C 20.38 33.99 7.50 20.36 6.00 33.00
C 9.07 33.12 7.73 28.51 11.00 28.00
C 12.33 31.39 10.80 33.32 8.00 35.00 Z"/>
</g>
<g fill="#525356" fill-opacity="1.00" stroke="None">
<path d="
M 0.00 47.00 
L 0.00 49.00
C 4.84 48.08 16.78 36.67 21.67 42.33 C 26.56 47.98 10.30 49.24 9.00 52.00
C 8.74 50.03 11.62 47.24 10.00 46.00
C 9.38 50.66 0.42 57.80 5.00 49.00
C 2.06 49.94 2.06 53.50 0.00 55.00
L 0.00 56.00
C 3.96 53.95 5.93 58.39 10.00 58.00
C 8.25 62.28 3.65 62.71 0.00 61.00
L 0.00 62.00
C 3.08 63.64 8.46 63.98 10.00 60.00
C 12.62 59.90 13.68 63.39 16.00 61.00
C 15.97 61.00 16.00 60.00 16.00 60.00
C 12.26 59.25 8.42 57.02 6.00 54.00
C 11.09 51.41 14.27 56.08 19.00 57.00
C 18.10 54.12 13.95 54.86 13.00 52.00
C 16.31 49.43 19.79 52.30 23.00 53.00
C 22.38 50.57 19.07 50.87 18.00 49.00
C 22.61 46.76 25.84 49.15 30.00 48.00
C 31.27 46.69 30.80 45.37 30.00 44.00
C 19.28 39.79 10.72 39.58 0.00 47.00
M 28.00 44.00 
C 24.52 48.70 23.05 41.85 28.00 44.00
M 30.00 46.00 
C 28.09 48.49 26.02 45.19 30.00 46.00 Z"/>
</g>
<g fill="#05080E" fill-opacity="1.00" stroke="None">
<path d="
M 0.00 49.00 
L 0.00 55.00
C 2.06 53.50 2.06 49.94 5.00 49.00
C 0.42 57.80 9.38 50.66 10.00 46.00
C 11.62 47.24 8.74 50.03 9.00 52.00
C 10.30 49.24 26.56 47.98 21.67 42.33 C 16.78 36.67 4.84 48.08 0.00 49.00
M 16.00 43.00 
C 16.47 48.37 12.09 45.81 16.00 43.00 Z"/>
</g>
<g fill="#46474C" fill-opacity="1.00" stroke="None">
<path d="
M 16.00 43.00 
C 12.09 45.81 16.47 48.37 16.00 43.00 Z"/>
</g>
<g fill="#03040A" fill-opacity="1.00" stroke="None">
<path d="
M 28.00 44.00 
C 23.05 41.85 24.52 48.70 28.00 44.00 Z"/>
</g>
<g fill="#818286" fill-opacity="1.00" stroke="None">
<path d="
M 30.00 48.00 
C 31.09 49.19 33.05 44.43 35.00 44.00
C 33.50 43.57 31.44 44.57 30.00 44.00
C 30.80 45.37 31.27 46.69 30.00 48.00 Z"/>
</g>
<g fill="#020306" fill-opacity="1.00" stroke="None">
<path d="
M 30.00 46.00 
C 26.02 45.19 28.09 48.49 30.00 46.00 Z"/>
</g>
<g fill="#373940" fill-opacity="1.00" stroke="None">
<path d="
M 38.00 54.00 
C 37.65 53.92 36.96 53.31 37.00 53.00
C 37.23 51.19 39.07 50.30 40.00 51.00
C 40.29 51.22 40.75 51.91 41.00 52.00
C 42.72 50.68 42.89 52.02 44.00 53.00
C 44.38 41.74 28.79 54.98 39.00 57.00
C 38.26 56.24 38.41 54.79 38.00 54.00 Z"/>
</g>
<g fill="#646568" fill-opacity="1.00" stroke="None">
<path d="
M 16.00 60.00 
C 16.00 60.00 15.97 61.00 16.00 61.00
C 23.05 61.06 25.71 54.11 30.00 50.00
C 24.09 51.97 22.81 59.08 16.00 60.00 Z"/>
</g>
<g fill="#060810" fill-opacity="1.00" stroke="None">
<path d="
M 37.00 53.00 
C 36.48 53.96 40.86 50.81 40.00 51.00
C 39.07 50.30 37.23 51.19 37.00 53.00 Z"/>
</g>
<g fill="#77787D" fill-opacity="1.00" stroke="None">
<path d="
M 37.00 53.00 
C 36.96 53.31 37.65 53.92 38.00 54.00
C 38.95 54.21 41.14 53.26 41.00 52.00
C 40.75 51.91 40.29 51.22 40.00 51.00
C 40.86 50.81 36.48 53.96 37.00 53.00 Z"/>
</g>
<g fill="#DDDEDE" fill-opacity="1.00" stroke="None">
<path d="
M 35.00 77.00 
C 34.11 78.90 32.52 81.32 32.00 83.00
C 31.15 85.76 31.14 89.09 31.00 92.00
C 30.89 94.29 30.89 96.71 31.00 99.00
C 32.53 129.83 67.35 148.80 94.30 135.30 C 121.26 121.81 126.82 85.04 105.75 64.25 C 84.68 43.46 47.52 50.23 35.00 77.00
M 116.00 89.00 
C 105.99 90.80 108.27 101.12 104.23 108.23 C 100.19 115.34 96.35 120.13 88.92 123.92 C 81.48 127.71 69.74 126.34 61.78 124.22 C 53.82 122.10 52.39 116.42 47.25 109.75 C 42.11 103.08 42.43 92.53 44.78 84.78 C 47.13 77.03 51.90 71.89 58.25 67.25 C 64.59 62.60 75.87 60.13 83.01 62.99 C 90.14 65.85 98.33 68.11 101.75 75.25 C 105.18 82.39 104.59 91.49 116.00 89.00 Z"/>
</g>
<g fill="#04050A" fill-opacity="1.00" stroke="None">
<path d="
M 0.00 56.00 
L 0.00 57.00
C 0.94 57.57 1.82 58.15 3.00 58.00
C 2.74 59.39 0.95 58.78 0.00 59.00
L 0.00 61.00
C 3.65 62.71 8.25 62.28 10.00 58.00
C 5.93 58.39 3.96 53.95 0.00 56.00 Z"/>
</g>
<g fill="#656567" fill-opacity="1.00" stroke="None">
<path d="
M 0.00 59.00 
C 0.95 58.78 2.74 59.39 3.00 58.00
C 1.82 58.15 0.94 57.57 0.00 57.00
L 0.00 59.00 Z"/>
</g>
<g fill="#505052" fill-opacity="1.00" stroke="None">
<path d="
M 32.00 83.00 
C 32.52 81.32 34.11 78.90 35.00 77.00
C 34.12 71.88 32.85 66.36 29.00 62.00
C 19.85 67.76 19.58 80.82 19.00 91.00
C 23.89 91.17 29.01 86.79 32.00 83.00
M 23.00 89.00 
C 21.94 86.79 22.78 85.07 24.00 83.00
C 26.22 84.40 29.12 82.87 29.00 80.00
C 27.15 80.94 24.19 81.28 25.00 78.00
C 27.26 76.85 31.18 76.49 31.00 73.00
C 28.80 71.93 27.35 77.15 26.00 75.00
C 28.91 71.03 29.05 69.70 29.00 66.00
C 37.74 73.05 30.80 84.20 23.00 89.00
M 25.00 70.00 
C 22.77 72.64 26.64 76.53 23.00 78.00
C 22.70 76.41 22.06 71.04 25.00 70.00
M 23.00 79.00 
C 24.51 80.84 22.32 83.69 21.00 85.00
C 19.57 83.28 20.40 78.94 23.00 79.00 Z"/>
</g>
<g fill="#B4B6B6" fill-opacity="1.00" stroke="None">
<path d="
M 116.00 89.00 
C 104.59 91.49 105.18 82.39 101.75 75.25 C 98.33 68.11 90.14 65.85 83.01 62.99 C 75.87 60.13 64.59 62.60 58.25 67.25 C 51.90 71.89 47.13 77.03 44.78 84.78 C 42.43 92.53 42.11 103.08 47.25 109.75 C 52.39 116.42 53.82 122.10 61.78 124.22 C 69.74 126.34 81.48 127.71 88.92 123.92 C 96.35 120.13 100.19 115.34 104.23 108.23 C 108.27 101.12 105.99 90.80 116.00 89.00
M 80.00 66.00 
C 100.36 69.65 112.23 94.83 99.08 112.08 C 85.93 129.34 60.00 127.20 50.08 107.92 C 40.15 88.65 57.07 61.89 80.00 66.00 Z"/>
</g>
<g fill="#49494C" fill-opacity="1.00" stroke="None">
<path d="
M 2.00 75.00 
C 2.50 75.00 3.00 75.00 3.00 75.00
C 8.36 72.99 14.47 71.21 21.00 72.00
C 21.53 68.98 23.53 63.10 18.00 64.00
C 19.13 65.33 21.85 66.96 20.00 69.00
C 17.34 69.16 17.27 63.70 17.00 69.00
C 10.50 68.38 2.72 74.59 6.00 64.00
C 1.01 62.46 0.71 72.97 2.00 75.00
M 4.00 65.00 
C 5.13 70.21 1.19 67.83 4.00 65.00
M 19.00 70.00 
C 12.89 72.91 10.68 68.79 19.00 70.00 Z"/>
</g>
<g fill="#020208" fill-opacity="1.00" stroke="None">
<path d="
M 4.00 65.00 
C 1.19 67.83 5.13 70.21 4.00 65.00 Z"/>
</g>
<g fill="#030307" fill-opacity="1.00" stroke="None">
<path d="
M 23.00 89.00 
C 30.80 84.20 37.74 73.05 29.00 66.00
C 29.05 69.70 28.91 71.03 26.00 75.00
C 27.35 77.15 28.80 71.93 31.00 73.00
C 31.18 76.49 27.26 76.85 25.00 78.00
C 24.19 81.28 27.15 80.94 29.00 80.00
C 29.12 82.87 26.22 84.40 24.00 83.00
C 22.78 85.07 21.94 86.79 23.00 89.00 Z"/>
</g>
<g fill="#E8EAE9" fill-opacity="1.00" stroke="None">
<path d="
M 80.00 66.00 
C 57.07 61.89 40.15 88.65 50.08 107.92 C 60.00 127.20 85.93 129.34 99.08 112.08 C 112.23 94.83 100.36 69.65 80.00 66.00
M 97.00 105.00 
C 96.58 106.30 96.39 107.65 96.00 109.00
C 91.28 125.40 62.75 124.47 54.68 109.32 C 46.61 94.17 50.60 72.65 71.02 70.02 C 91.44 67.40 104.70 83.37 101.00 104.00
C 99.62 105.36 98.47 103.67 97.00 105.00 Z"/>
</g>
<g fill="#000106" fill-opacity="1.00" stroke="None">
<path d="
M 19.00 70.00 
C 10.68 68.79 12.89 72.91 19.00 70.00 Z"/>
</g>
<g fill="#020307" fill-opacity="1.00" stroke="None">
<path d="
M 25.00 70.00 
C 22.06 71.04 22.70 76.41 23.00 78.00
C 26.64 76.53 22.77 72.64 25.00 70.00 Z"/>
</g>
<g fill="#D6BFB4" fill-opacity="1.00" stroke="None">
<path d="
M 96.00 109.00 
C 87.11 124.41 64.93 119.89 56.00 108.00
C 47.41 96.56 53.28 78.00 67.00 73.00
C 88.55 65.14 103.15 86.20 97.00 105.00
C 98.47 103.67 99.62 105.36 101.00 104.00
C 104.70 83.37 91.44 67.40 71.02 70.02 C 50.60 72.65 46.61 94.17 54.68 109.32 C 62.75 124.47 91.28 125.40 96.00 109.00 Z"/>
</g>
<g fill="#87492F" fill-opacity="1.00" stroke="None">
<path d="
M 67.00 73.00 
C 73.56 71.40 84.03 73.37 90.00 78.00
C 88.94 83.37 92.04 86.66 93.00 92.00 C 93.95 97.34 88.29 101.96 90.00 107.00
C 81.74 112.15 69.60 118.80 59.00 109.00
C 58.78 108.74 58.10 108.35 58.00 108.00
C 56.99 107.06 55.99 107.99 56.00 108.00
C 64.93 119.89 87.11 124.41 96.00 109.00
C 96.39 107.65 96.58 106.30 97.00 105.00
C 103.15 86.20 88.55 65.14 67.00 73.00 Z"/>
</g>
<g fill="#A75E39" fill-opacity="1.00" stroke="None">
<path d="
M 56.00 108.00 
C 55.99 107.99 56.99 107.06 58.00 108.00
C 57.03 104.69 56.10 103.08 56.00 99.00
C 52.92 104.52 52.29 89.64 55.78 85.78 C 59.27 81.92 64.30 74.47 71.00 75.00
C 72.08 76.75 73.12 79.22 76.00 79.00
C 72.67 83.94 84.32 90.59 79.22 98.22 C 74.12 105.85 66.36 104.36 59.00 104.00
C 58.02 105.76 60.59 108.14 59.00 109.00
C 69.60 118.80 81.74 112.15 90.00 107.00
C 88.29 101.96 93.95 97.34 93.00 92.00 C 92.04 86.66 88.94 83.37 90.00 78.00
C 84.03 73.37 73.56 71.40 67.00 73.00
C 53.28 78.00 47.41 96.56 56.00 108.00 Z"/>
</g>
<g fill="#E4E4E4" fill-opacity="1.00" stroke="None">
<path d="
M 0.00 79.00 
C 2.67 79.00 5.33 79.00 8.00 79.00
C 9.26 79.00 10.76 79.22 12.00 79.00
C 11.59 76.63 8.94 75.98 3.00 75.00
C 3.00 75.00 2.50 75.00 2.00 75.00
C 1.50 75.00 0.50 75.00 0.00 75.00
L 0.00 79.00 Z"/>
</g>
<g fill="#BD7449" fill-opacity="1.00" stroke="None">
<path d="
M 58.00 108.00 
C 58.10 108.35 58.78 108.74 59.00 109.00
C 60.59 108.14 58.02 105.76 59.00 104.00
C 66.36 104.36 74.12 105.85 79.22 98.22 C 84.32 90.59 72.67 83.94 76.00 79.00
C 73.12 79.22 72.08 76.75 71.00 75.00
C 64.30 74.47 59.27 81.92 55.78 85.78 C 52.29 89.64 52.92 104.52 56.00 99.00
C 56.10 103.08 57.03 104.69 58.00 108.00 Z"/>
</g>
<g fill="#06070A" fill-opacity="1.00" stroke="None">
<path d="
M 0.00 86.00 
C 3.40 88.31 5.61 84.99 9.00 85.00
C 7.08 82.73 11.51 80.45 8.00 79.00
C 5.33 79.00 2.67 79.00 0.00 79.00
L 0.00 86.00 Z"/>
</g>
<g fill="#4E4F51" fill-opacity="1.00" stroke="None">
<path d="
M 0.00 86.00 
L 0.00 87.00
C 2.43 88.20 4.35 87.70 6.00 90.00
C 6.50 89.98 7.00 90.00 7.00 90.00
C 7.46 86.82 8.30 86.42 11.25 84.25 C 14.19 82.07 12.31 80.78 12.00 79.00
C 10.76 79.22 9.26 79.00 8.00 79.00
C 11.51 80.45 7.08 82.73 9.00 85.00
C 5.61 84.99 3.40 88.31 0.00 86.00 Z"/>
</g>
<g fill="#080A0F" fill-opacity="1.00" stroke="None">
<path d="
M 23.00 79.00 
C 20.40 78.94 19.57 83.28 21.00 85.00
C 22.32 83.69 24.51 80.84 23.00 79.00 Z"/>
</g>
<g fill="#13151B" fill-opacity="1.00" stroke="None">
<path d="
M 0.00 89.00 
C 2.00 89.55 3.76 90.09 6.00 90.00
C 4.35 87.70 2.43 88.20 0.00 87.00
L 0.00 89.00 Z"/>
</g>
<g fill="#D4D4D6" fill-opacity="1.00" stroke="None">
<path d="
M 0.00 91.00 
C 2.54 92.39 6.08 92.26 9.00 92.00
C 8.86 91.54 9.00 91.00 9.00 91.00
C 8.90 89.95 7.75 89.95 7.00 90.00
C 7.00 90.00 6.50 89.98 6.00 90.00
C 3.76 90.09 2.00 89.55 0.00 89.00
L 0.00 91.00 Z"/>
</g>
<g fill="#020308" fill-opacity="1.00" stroke="None">
<path d="
M 0.00 95.00 
C 4.26 94.73 7.71 96.16 12.00 96.00
C 11.20 94.78 11.53 93.48 13.00 93.00
C 11.70 92.83 9.52 93.68 9.00 92.00
C 6.08 92.26 2.54 92.39 0.00 91.00
L 0.00 95.00 Z"/>
</g>
<g fill="#69696B" fill-opacity="1.00" stroke="None">
<path d="
M 9.00 92.00 
C 9.52 93.68 11.70 92.83 13.00 93.00
C 14.64 93.21 16.35 92.84 18.00 93.00
C 18.28 94.28 17.24 96.50 19.00 97.00
C 19.00 95.33 19.00 93.67 19.00 92.00
C 15.62 91.77 12.01 92.71 9.00 91.00
C 9.00 91.00 8.86 91.54 9.00 92.00 Z"/>
</g>
<g fill="#626265" fill-opacity="1.00" stroke="None">
<path d="
M 31.00 99.00 
C 30.89 96.71 30.89 94.29 31.00 92.00
C 30.59 94.51 30.58 96.44 31.00 99.00 Z"/>
</g>
<g fill="#404145" fill-opacity="1.00" stroke="None">
<path d="
M 12.00 96.00 
C 12.23 96.35 12.00 97.00 12.00 97.00
C 13.01 97.36 13.76 98.32 15.00 98.00
C 10.65 101.76 16.00 108.82 13.00 114.00
C 13.05 113.86 14.00 114.00 14.00 114.00
C 15.42 108.88 15.85 103.45 16.00 98.00
C 16.96 97.78 18.72 98.38 19.00 97.00
C 17.24 96.50 18.28 94.28 18.00 93.00
C 16.35 92.84 14.64 93.21 13.00 93.00
C 11.53 93.48 11.20 94.78 12.00 96.00 Z"/>
</g>
<g fill="#696A6D" fill-opacity="1.00" stroke="None">
<path d="
M 0.00 96.00 
C 4.14 95.64 7.73 97.78 12.00 97.00
C 12.00 97.00 12.23 96.35 12.00 96.00
C 7.71 96.16 4.26 94.73 0.00 95.00
L 0.00 96.00 Z"/>
</g>
<g fill="#03050B" fill-opacity="1.00" stroke="None">
<path d="
M 0.00 116.00 
C 1.65 116.13 3.35 115.82 5.00 116.00
C 5.87 115.79 5.15 112.63 8.00 114.00
C 2.51 111.02 8.45 110.56 12.00 111.00
C 11.62 113.31 10.90 114.84 12.00 117.00
C 13.25 116.23 12.77 115.34 13.00 114.00
C 16.00 108.82 10.65 101.76 15.00 98.00
C 13.76 98.32 13.01 97.36 12.00 97.00
C 7.73 97.78 4.14 95.64 0.00 96.00
L 0.00 116.00 Z"/>
</g>
<g fill="#3C3D42" fill-opacity="1.00" stroke="None">
<path d="
M 25.00 104.00 
C 18.83 102.31 18.37 111.76 24.32 112.66 C 30.27 113.56 29.16 105.14 25.00 104.00
M 24.00 105.00 
C 25.53 107.16 28.40 109.28 26.00 112.00
C 24.34 110.26 20.77 110.02 21.00 107.00
C 24.37 109.44 22.53 106.25 24.00 105.00 Z"/>
</g>
<g fill="#01020A" fill-opacity="1.00" stroke="None">
<path d="
M 24.00 105.00 
C 22.53 106.25 24.37 109.44 21.00 107.00
C 20.77 110.02 24.34 110.26 26.00 112.00
C 28.40 109.28 25.53 107.16 24.00 105.00 Z"/>
</g>
<g fill="#37383B" fill-opacity="1.00" stroke="None">
<path d="
M 5.00 116.00 
C 6.36 116.14 10.03 118.20 12.00 117.00
C 10.90 114.84 11.62 113.31 12.00 111.00
C 8.45 110.56 2.51 111.02 8.00 114.00
C 5.15 112.63 5.87 115.79 5.00 116.00 Z"/>
</g>
<g fill="#7A7A7C" fill-opacity="1.00" stroke="None">
<path d="
M 12.00 117.00 
C 10.03 118.20 6.36 116.14 5.00 116.00
C 3.35 115.82 1.65 116.13 0.00 116.00
L 0.00 117.00
C 2.95 118.12 7.08 116.89 10.00 118.00
C 10.70 117.89 13.42 122.02 14.00 122.00
C 18.03 120.87 14.11 117.01 14.00 114.00
C 14.00 114.00 13.05 113.86 13.00 114.00
C 12.77 115.34 13.25 116.23 12.00 117.00 Z"/>
</g>
<g fill="#04050B" fill-opacity="1.00" stroke="None">
<path d="
M 0.00 119.00 
C 0.74 118.82 1.91 119.05 2.00 120.00
C 4.07 119.72 6.93 119.72 9.00 120.00
C 9.02 119.91 10.14 117.98 10.00 118.00
C 7.08 116.89 2.95 118.12 0.00 117.00
L 0.00 119.00 Z"/>
</g>
<g fill="#44454A" fill-opacity="1.00" stroke="None">
<path d="
M 39.00 146.00 
C 45.20 135.99 36.51 122.26 27.00 117.00
C 23.00 124.57 19.70 141.28 29.00 144.00
C 23.37 139.00 21.12 126.61 29.00 122.00
C 29.86 125.80 29.18 127.89 27.00 131.00
C 33.21 126.56 30.35 136.41 27.00 139.00
C 31.77 134.13 34.10 139.68 30.00 144.00
C 33.37 140.82 34.36 144.41 35.00 148.00
C 33.04 146.97 31.40 144.95 29.00 145.00
C 30.80 147.45 33.99 149.39 37.00 150.00
C 37.11 145.31 30.81 138.28 38.00 139.00
C 32.66 137.48 31.10 133.45 35.00 132.00
C 29.66 131.59 32.17 125.95 32.00 124.00
C 39.52 127.90 40.48 138.72 39.00 146.00 Z"/>
</g>
<g fill="#505052" fill-opacity="1.00" stroke="None">
<path d="
M 9.00 120.00 
C 8.91 120.48 9.00 121.00 9.00 121.00
C 10.75 121.23 11.92 122.58 14.00 122.00
C 13.42 122.02 10.70 117.89 10.00 118.00
C 10.14 117.98 9.02 119.91 9.00 120.00 Z"/>
</g>
<g fill="#505052" fill-opacity="1.00" stroke="None">
<path d="
M 0.00 121.00 
C 0.50 121.00 1.50 121.00 2.00 121.00
C 2.23 120.66 2.00 120.00 2.00 120.00
C 1.91 119.05 0.74 118.82 0.00 119.00
L 0.00 121.00 Z"/>
</g>
<g fill="#7A7A7C" fill-opacity="1.00" stroke="None">
<path d="
M 2.00 121.00 
C 4.27 121.00 6.75 120.71 9.00 121.00
C 9.00 121.00 8.91 120.48 9.00 120.00
C 6.93 119.72 4.07 119.72 2.00 120.00
C 2.00 120.00 2.23 120.66 2.00 121.00 Z"/>
</g>
<g fill="#616264" fill-opacity="1.00" stroke="None">
<path d="
M 0.00 137.00 
L 0.00 139.00
C 2.12 136.53 4.86 136.82 7.00 139.00
C 3.71 132.45 14.34 135.58 13.00 129.00
C 17.86 134.57 21.69 141.61 23.00 149.00
C 16.46 147.51 17.69 137.15 12.00 135.00
C 13.73 140.80 19.97 146.38 19.00 152.00
C 18.77 152.36 19.00 153.00 19.00 153.00
C 19.53 153.93 17.15 156.13 16.00 155.00
C 14.92 154.89 15.56 153.44 16.00 153.00
C 15.65 148.37 9.05 143.74 7.00 140.00
C 7.29 146.18 15.13 149.76 14.00 155.00
C 12.85 156.86 12.17 156.89 10.00 157.00
C 9.16 157.04 7.81 157.21 7.00 157.00
C 7.41 158.20 6.69 159.77 7.00 161.00
L 10.00 161.00
C 10.37 159.30 12.42 158.60 12.00 161.00
L 14.00 161.00
C 11.37 158.39 15.70 156.62 18.00 157.00
C 17.63 158.54 19.43 159.40 19.00 161.00
L 23.00 161.00
C 20.84 159.99 18.42 158.18 19.00 155.00
C 23.83 152.99 26.00 157.01 28.00 161.00
L 31.00 161.00
C 28.20 158.43 24.76 155.06 24.00 151.00
C 26.34 150.32 25.86 153.87 28.00 154.00
C 29.57 154.95 34.69 157.62 36.00 161.00
L 37.00 161.00
C 25.55 151.21 17.93 138.53 20.00 123.00
C 15.39 127.55 7.27 123.95 3.00 128.00
C 6.16 126.87 9.53 126.87 13.00 127.00
C 11.02 132.65 4.87 134.80 0.00 137.00
M 19.00 125.00 
C 19.00 128.00 19.00 131.00 19.00 134.00
C 16.14 133.05 16.88 128.90 14.00 128.00
C 15.16 126.51 17.34 125.98 19.00 125.00
M 23.00 151.00 
C 22.96 150.96 22.06 153.50 21.25 152.59 C 20.43 151.67 22.37 150.37 23.00 151.00 Z"/>
</g>
<g fill="#36373D" fill-opacity="1.00" stroke="None">
<path d="
M 119.00 125.00 
C 115.80 120.24 110.36 126.88 112.00 131.00
C 115.14 131.46 118.21 130.10 119.00 127.00
C 116.47 127.05 115.96 130.45 113.00 130.00
C 112.77 125.57 116.67 125.37 119.00 125.00 Z"/>
</g>
<g fill="#CACACC" fill-opacity="1.00" stroke="None">
<path d="
M 0.00 131.00 
C 3.07 130.20 1.92 126.18 0.00 125.00
L 0.00 131.00 Z"/>
</g>
<g fill="#06080E" fill-opacity="1.00" stroke="None">
<path d="
M 19.00 125.00 
C 17.34 125.98 15.16 126.51 14.00 128.00
C 16.88 128.90 16.14 133.05 19.00 134.00
C 19.00 131.00 19.00 128.00 19.00 125.00 Z"/>
</g>
<g fill="#030409" fill-opacity="1.00" stroke="None">
<path d="
M 0.00 139.00 
L 0.00 141.00
C 3.76 145.72 8.59 150.48 11.00 156.00
C 12.11 155.02 12.28 153.68 14.00 155.00
C 15.13 149.76 7.29 146.18 7.00 140.00
C 9.05 143.74 15.65 148.37 16.00 153.00
C 16.48 152.52 18.31 151.59 19.00 152.00
C 19.97 146.38 13.73 140.80 12.00 135.00
C 17.69 137.15 16.46 147.51 23.00 149.00
C 21.69 141.61 17.86 134.57 13.00 129.00
C 14.34 135.58 3.71 132.45 7.00 139.00
C 4.86 136.82 2.12 136.53 0.00 139.00 Z"/>
</g>
<g fill="#404146" fill-opacity="1.00" stroke="None">
<path d="
M 94.00 156.00 
C 94.00 155.91 93.00 154.71 93.00 154.00
C 92.99 151.77 94.14 150.27 94.00 148.00
C 90.33 148.10 92.67 153.58 92.00 156.00
C 87.61 144.20 101.16 131.22 113.00 135.00
C 110.73 135.62 106.03 144.24 105.00 137.00
C 104.74 140.97 102.94 143.68 100.00 146.00
C 97.59 144.34 101.08 141.46 100.00 139.00
C 96.50 140.47 98.57 145.08 98.00 148.00
C 98.57 147.52 99.44 147.39 100.00 147.00
C 102.92 143.19 108.01 148.46 111.00 146.00
C 109.09 144.07 105.53 146.07 104.00 144.00
C 106.61 140.87 109.54 143.60 113.00 143.00
C 106.44 141.36 111.74 137.45 116.00 137.00
C 116.18 143.35 111.27 148.23 107.00 152.00
C 121.45 147.57 118.36 129.84 104.67 133.67 C 90.99 137.51 88.50 147.18 91.00 159.00
C 93.18 159.44 93.06 157.21 94.00 156.00 Z"/>
</g>
<g fill="#090C12" fill-opacity="1.00" stroke="None">
<path d="
M 93.00 154.00 
C 93.22 152.73 97.03 148.83 98.00 148.00
C 98.57 145.08 96.50 140.47 100.00 139.00
C 101.08 141.46 97.59 144.34 100.00 146.00
C 102.94 143.68 104.74 140.97 105.00 137.00
C 106.03 144.24 110.73 135.62 113.00 135.00
C 101.16 131.22 87.61 144.20 92.00 156.00
C 92.67 153.58 90.33 148.10 94.00 148.00
C 94.14 150.27 92.99 151.77 93.00 154.00 Z"/>
</g>
<g fill="#7A7A7C" fill-opacity="1.00" stroke="None">
<path d="
M 0.00 144.00 
C 5.04 144.64 6.62 156.04 10.00 157.00
C 12.17 156.89 12.85 156.86 14.00 155.00
C 12.28 153.68 12.11 155.02 11.00 156.00
C 8.59 150.48 3.76 145.72 0.00 141.00
L 0.00 144.00 Z"/>
</g>
<g fill="#808081" fill-opacity="1.00" stroke="None">
<path d="
M 70.00 142.00 
C 72.74 142.49 70.92 144.06 70.00 145.00
C 68.17 146.88 64.29 149.47 62.00 151.00
C 62.15 150.99 62.71 152.06 63.00 152.00
C 66.23 148.90 70.41 146.73 73.00 143.00
C 74.17 143.67 74.24 145.04 75.00 146.00
C 75.13 145.65 75.91 145.25 76.00 145.00
C 76.00 143.67 76.00 142.33 76.00 141.00
C 73.76 140.49 71.93 141.37 70.00 142.00 Z"/>
</g>
<g fill="#5E5F63" fill-opacity="1.00" stroke="None">
<path d="
M 52.00 154.00 
C 52.45 153.54 48.82 157.28 50.00 155.00
C 46.99 155.83 48.57 158.51 50.00 160.00
C 53.28 156.44 59.02 154.67 63.00 152.00
C 62.71 152.06 62.15 150.99 62.00 151.00
C 59.15 152.90 55.83 154.07 53.00 156.00
C 56.37 151.38 64.61 144.73 70.00 145.00
C 70.92 144.06 72.74 142.49 70.00 142.00
C 63.37 144.15 57.22 149.82 52.00 154.00 Z"/>
</g>
<g fill="#030409" fill-opacity="1.00" stroke="None">
<path d="
M 0.00 151.00 
C 2.88 151.95 4.11 156.26 7.00 157.00
C 7.81 157.21 9.16 157.04 10.00 157.00
C 6.62 156.04 5.04 144.64 0.00 144.00
L 0.00 151.00 Z"/>
</g>
<g fill="#3C3E43" fill-opacity="1.00" stroke="None">
<path d="
M 46.00 155.00 
C 50.26 152.12 49.33 141.73 43.25 144.25 C 37.17 146.77 40.37 156.23 46.00 155.00
M 43.00 153.00 
C 44.53 150.80 46.87 149.10 46.00 146.00
C 49.76 147.29 46.30 153.94 43.00 153.00
M 44.00 149.00 
C 45.59 149.38 43.43 151.79 43.00 150.00
C 41.24 147.95 43.24 145.72 44.00 149.00 Z"/>
</g>
<g fill="#04050C" fill-opacity="1.00" stroke="None">
<path d="
M 62.00 151.00 
C 64.29 149.47 68.17 146.88 70.00 145.00
C 64.61 144.73 56.37 151.38 53.00 156.00
C 55.83 154.07 59.15 152.90 62.00 151.00 Z"/>
</g>
<g fill="#E5E6E8" fill-opacity="1.00" stroke="None">
<path d="
M 75.00 146.00 
C 72.10 154.09 60.04 156.41 54.00 161.00
L 67.00 161.00
C 71.24 157.70 76.68 154.77 80.00 150.00
C 77.88 148.93 76.94 146.65 76.00 145.00
C 75.91 145.25 75.13 145.65 75.00 146.00 Z"/>
</g>
<g fill="#04060C" fill-opacity="1.00" stroke="None">
<path d="
M 43.00 153.00 
C 46.30 153.94 49.76 147.29 46.00 146.00
C 46.87 149.10 44.53 150.80 43.00 153.00 Z"/>
</g>
<g fill="#010209" fill-opacity="1.00" stroke="None">
<path d="
M 43.00 150.00 
C 42.93 149.72 44.02 149.08 44.00 149.00
C 43.24 145.72 41.24 147.95 43.00 150.00 Z"/>
</g>
<g fill="#63646A" fill-opacity="1.00" stroke="None">
<path d="
M 98.00 148.00 
C 97.03 148.83 93.22 152.73 93.00 154.00
C 93.00 154.71 94.00 155.91 94.00 156.00
C 95.51 154.06 95.74 152.47 98.00 151.00
C 98.23 150.85 98.00 150.00 98.00 150.00
C 98.32 149.13 99.31 147.64 100.00 147.00
C 99.44 147.39 98.57 147.52 98.00 148.00 Z"/>
</g>
<g fill="#34363C" fill-opacity="1.00" stroke="None">
<path d="
M 118.00 153.00 
C 117.65 152.97 117.17 152.33 117.00 152.00
C 116.32 150.64 117.74 148.27 119.00 151.00
C 120.24 150.88 119.26 152.84 119.00 153.00
C 122.74 149.88 120.74 153.02 122.00 155.00
C 126.16 150.86 121.03 145.48 116.75 148.75 C 112.48 152.02 114.47 159.07 120.00 156.00
C 118.51 154.90 114.41 155.67 118.00 153.00 Z"/>
</g>
<g fill="#7D7E83" fill-opacity="1.00" stroke="None">
<path d="
M 43.00 150.00 
C 43.43 151.79 45.59 149.38 44.00 149.00
C 44.02 149.08 42.93 149.72 43.00 150.00 Z"/>
</g>
<g fill="#02040A" fill-opacity="1.00" stroke="None">
<path d="
M 117.00 152.00 
C 116.65 153.01 119.68 150.93 119.00 151.00
C 117.74 148.27 116.32 150.64 117.00 152.00 Z"/>
</g>
<g fill="#36373D" fill-opacity="1.00" stroke="None">
<path d="
M 98.00 151.00 
C 100.83 151.91 103.22 153.96 106.00 153.00
C 104.59 150.33 100.63 150.72 98.00 150.00
C 98.00 150.00 98.23 150.85 98.00 151.00 Z"/>
</g>
<g fill="#78797C" fill-opacity="1.00" stroke="None">
<path d="
M 0.00 153.00 
C 2.46 155.10 6.43 157.28 6.00 161.00
L 7.00 161.00
C 6.69 159.77 7.41 158.20 7.00 157.00
C 4.11 156.26 2.88 151.95 0.00 151.00
L 0.00 153.00 Z"/>
</g>
<g fill="#0E0F11" fill-opacity="1.00" stroke="None">
<path d="
M 23.00 151.00 
C 22.37 150.37 20.43 151.67 21.25 152.59 C 22.06 153.50 22.96 150.96 23.00 151.00 Z"/>
</g>
<g fill="#080A0F" fill-opacity="1.00" stroke="None">
<path d="
M 31.00 161.00 
L 35.00 161.00
C 33.27 158.19 30.45 156.01 28.00 154.00
C 25.86 153.87 26.34 150.32 24.00 151.00
C 24.76 155.06 28.20 158.43 31.00 161.00 Z"/>
</g>
<g fill="#909196" fill-opacity="1.00" stroke="None">
<path d="
M 117.00 152.00 
C 117.17 152.33 117.65 152.97 118.00 153.00
C 118.00 153.00 118.69 153.24 119.00 153.00
C 119.26 152.84 120.24 150.88 119.00 151.00
C 119.68 150.93 116.65 153.01 117.00 152.00 Z"/>
</g>
<g fill="#8C8D8F" fill-opacity="1.00" stroke="None">
<path d="
M 16.00 153.00 
C 15.56 153.44 14.92 154.89 16.00 155.00
C 15.85 154.98 18.80 153.17 19.00 153.00
C 19.00 153.00 18.77 152.36 19.00 152.00
C 18.31 151.59 16.48 152.52 16.00 153.00 Z"/>
</g>
<g fill="#5C5B61" fill-opacity="1.00" stroke="None">
<path d="
M 87.00 161.00 
L 90.00 161.00
C 87.36 156.94 82.74 154.87 79.00 152.00
C 79.36 156.47 86.63 156.55 87.00 161.00 Z"/>
</g>
<g fill="#05070C" fill-opacity="1.00" stroke="None">
<path d="
M 0.00 161.00 
L 6.00 161.00
C 6.43 157.28 2.46 155.10 0.00 153.00
L 0.00 161.00 Z"/>
</g>
<g fill="#06080E" fill-opacity="1.00" stroke="None">
<path d="
M 16.00 155.00 
C 17.15 156.13 19.53 153.93 19.00 153.00
C 18.80 153.17 15.85 154.98 16.00 155.00 Z"/>
</g>
<g fill="#949598" fill-opacity="1.00" stroke="None">
<path d="
M 28.00 154.00 
C 30.45 156.01 33.27 158.19 35.00 161.00
L 36.00 161.00
C 34.69 157.62 29.57 154.95 28.00 154.00 Z"/>
</g>
<g fill="#101216" fill-opacity="1.00" stroke="None">
<path d="
M 23.00 161.00 
L 28.00 161.00
C 26.00 157.01 23.83 152.99 19.00 155.00
C 18.42 158.18 20.84 159.99 23.00 161.00 Z"/>
</g>
<g fill="#9D9EA3" fill-opacity="1.00" stroke="None">
<path d="
M 50.00 155.00 
C 48.82 157.28 52.45 153.54 52.00 154.00
C 51.54 154.37 50.55 154.65 50.00 155.00 Z"/>
</g>
<g fill="#37383D" fill-opacity="1.00" stroke="None">
<path d="
M 102.00 155.00 
C 100.87 153.33 97.29 155.19 96.00 156.00
C 97.25 158.22 100.74 155.88 102.00 155.00 Z"/>
</g>
<g fill="#16171B" fill-opacity="1.00" stroke="None">
<path d="
M 14.00 161.00 
L 19.00 161.00
C 19.43 159.40 17.63 158.54 18.00 157.00
C 15.70 156.62 11.37 158.39 14.00 161.00 Z"/>
</g>
<g fill="#1A1B1F" fill-opacity="1.00" stroke="None">
<path d="
M 10.00 161.00 
L 12.00 161.00
C 12.42 158.60 10.37 159.30 10.00 161.00 Z"/>
</g>
</svg>